<?xml version="1.0" standalone="no"?>
<!DOCTYPE svg PUBLIC "-//W3C//DTD SVG 20010904//EN"
 "http://www.w3.org/TR/2001/REC-SVG-20010904/DTD/svg10.dtd">
<svg version="1.0" xmlns="http://www.w3.org/2000/svg"
 width="880.000000pt" height="1020.000000pt" viewBox="0 0 880.000000 1020.000000"
 preserveAspectRatio="xMidYMid meet">
<metadata>
Created by potrace 1.15, written by Peter Selinger 2001-2017
</metadata>
<g transform="translate(0.000000,1020.000000) scale(0.100000,-0.100000)"
fill="#000000" stroke="none">
<path d="M4336 10083 c-36 -9 -116 -65 -150 -104 -18 -22 -42 -65 -51 -97 -16
-50 -17 -68 -7 -164 11 -103 56 -262 84 -295 19 -23 -6 -86 -40 -100 -30 -14
-82 -95 -107 -169 -17 -52 -22 -345 -5 -388 10 -28 40 -36 40 -11 0 8 5 15 11
15 5 0 8 4 4 9 -3 5 0 13 6 16 7 5 3 15 -10 29 -58 62 -55 253 5 382 24 51 50
82 60 72 2 -3 -1 -18 -7 -34 -7 -18 -15 -133 -20 -294 -4 -146 -12 -281 -18
-300 -7 -22 -7 -38 -1 -44 11 -11 28 30 37 91 3 24 9 43 13 43 3 0 20 -28 36
-62 30 -65 42 -80 56 -72 4 3 -12 44 -36 93 -24 48 -49 114 -55 146 -20 108
-10 297 20 393 l11 32 56 -47 c31 -27 63 -54 71 -61 18 -17 56 -32 81 -32 34
0 79 52 108 125 25 62 34 73 79 100 139 83 158 168 100 465 l-22 115 -60 61
c-43 43 -74 66 -109 77 -47 16 -137 21 -180 10z m193 -42 c50 -25 51 -41 2
-41 -23 0 -41 -4 -41 -10 0 -5 26 -10 58 -10 80 0 98 -21 130 -153 33 -138 35
-292 5 -358 -18 -40 -76 -99 -96 -99 -4 0 -7 20 -7 44 0 25 -4 48 -10 51 -5 3
-10 -3 -10 -14 0 -24 -10 -27 -28 -9 -20 20 -26 -1 -6 -23 18 -20 18 -20 -9
-14 -31 8 -38 -10 -7 -20 44 -14 15 -25 -66 -25 -128 0 -169 13 -199 65 -37
62 -85 220 -92 302 -7 85 10 180 41 226 67 99 229 142 335 88z m-249 -688 c21
-15 44 -18 138 -16 104 2 113 1 107 -15 -4 -9 -16 -41 -26 -69 -22 -57 -58
-93 -95 -93 -22 0 -168 118 -177 143 -5 14 12 67 22 67 3 0 18 -8 31 -17z"/>
<path d="M4522 9927 c-52 -55 1 -173 68 -152 34 11 51 99 28 150 -15 34 -65
35 -96 2z"/>
<path d="M4331 9926 c-31 -17 -50 -53 -51 -93 0 -62 102 -108 155 -69 16 11
19 25 17 72 -3 74 -22 104 -65 104 -17 -1 -43 -7 -56 -14z"/>
<path d="M2455 10062 c-33 -9 -99 -29 -147 -45 -82 -27 -90 -33 -150 -100 -35
-38 -82 -89 -105 -111 -24 -23 -43 -46 -43 -51 -1 -11 -46 -65 -54 -65 -2 0
-7 10 -9 23 -3 12 -4 2 -3 -23 l1 -45 142 -5 c78 -3 145 -8 149 -12 4 -5 -7
-8 -24 -8 -39 0 -82 -16 -82 -30 0 -6 5 -8 12 -4 7 4 8 3 4 -4 -4 -7 -15 -12
-25 -12 -22 0 -58 -26 -49 -35 4 -4 13 -3 20 1 7 5 27 14 43 20 17 6 48 19 70
29 55 23 32 4 -40 -35 -71 -38 -155 -98 -155 -111 0 -17 22 -9 63 24 23 19 60
43 82 54 22 12 71 37 109 57 37 20 78 36 90 36 12 0 27 5 34 12 9 9 21 8 52
-2 22 -7 43 -10 47 -7 11 12 -29 47 -53 47 -12 0 -35 5 -51 11 -15 6 -41 13
-58 15 -16 3 -59 9 -94 15 -94 15 -85 5 19 -21 50 -12 89 -25 86 -28 -3 -2
-25 0 -50 7 -24 6 -103 14 -175 17 -118 6 -131 5 -131 -9 0 -10 -4 -17 -10
-17 -17 0 -11 15 18 41 15 13 45 46 67 72 22 26 49 47 60 48 11 0 14 3 8 6
-18 7 -16 20 5 41 9 10 33 36 53 58 49 56 78 74 115 74 17 0 42 8 55 19 22 17
120 41 230 56 25 4 63 2 85 -4 39 -11 174 -105 181 -127 2 -6 -37 -43 -86 -82
-64 -51 -95 -69 -109 -65 -15 4 -24 -3 -36 -26 -9 -17 -21 -31 -26 -31 -5 0
-12 -10 -16 -22 -4 -13 -16 -35 -27 -50 -26 -35 -16 -46 20 -21 15 10 37 18
48 17 11 0 31 10 45 22 36 33 108 46 209 38 96 -8 103 -13 132 -94 9 -25 26
-72 38 -105 21 -57 29 -83 51 -183 6 -23 10 -89 10 -147 0 -57 4 -106 9 -109
15 -9 5 -88 -13 -101 -9 -7 -16 -18 -16 -24 0 -7 -7 -26 -17 -44 -9 -18 -20
-45 -24 -62 -4 -16 -12 -45 -17 -62 -8 -26 -8 -33 3 -33 7 0 19 17 26 38 6 20
29 76 50 123 38 85 53 179 29 179 -6 0 -10 67 -10 180 0 172 -1 184 -26 243
-14 34 -43 88 -65 120 -21 32 -41 75 -45 95 -7 45 -40 116 -60 132 -24 21 -17
-16 12 -60 14 -21 24 -45 21 -52 -3 -8 -9 -2 -17 15 -7 15 -17 27 -22 27 -13
0 -9 -28 5 -33 9 -4 8 -8 -3 -16 -14 -10 -180 -16 -180 -7 0 3 18 15 40 27 22
13 40 26 40 31 0 15 -34 8 -65 -12 -44 -29 -55 -24 -15 8 19 15 54 44 76 64
23 21 49 38 58 38 9 0 16 7 16 16 0 9 10 24 23 34 31 25 16 34 -21 13 l-31
-18 -53 52 c-73 71 -124 93 -218 91 -41 0 -102 -8 -135 -16z"/>
<path d="M7965 10040 c-71 -17 -105 -27 -208 -63 -15 -5 -60 -45 -99 -89 -56
-62 -75 -77 -91 -72 -15 5 -19 3 -14 -10 5 -13 0 -15 -38 -9 -31 4 -45 2 -45
-6 0 -6 17 -11 40 -11 22 0 40 -2 40 -5 0 -3 -19 -32 -42 -63 l-43 -57 -6 30
c-6 29 -7 29 -8 -8 0 -21 -10 -59 -22 -84 -12 -26 -17 -52 -13 -61 6 -14 8
-13 15 8 8 23 8 23 4 -5 -2 -16 -11 -55 -19 -85 -9 -30 -17 -82 -18 -115 -1
-33 -5 5 -8 85 l-6 145 -2 -200 c-2 -250 11 -343 62 -433 20 -35 36 -76 36
-91 0 -30 25 -118 39 -141 15 -23 24 -4 10 22 -19 34 -39 128 -28 128 5 0 19
-16 30 -35 14 -23 44 -47 95 -75 42 -22 78 -40 80 -40 17 0 -16 24 -75 55 -48
26 -73 45 -81 65 -6 15 -22 38 -36 51 -13 12 -24 32 -24 43 0 18 -35 158 -62
244 -5 19 -9 88 -9 154 1 92 6 131 21 171 11 29 20 71 20 94 0 37 7 50 60 110
33 37 60 71 60 75 0 14 44 8 85 -11 22 -10 57 -37 78 -59 l39 -40 -54 2 c-47
1 -60 -4 -103 -35 -55 -39 -80 -91 -71 -144 10 -60 23 -120 30 -136 12 -27 62
-49 114 -49 49 0 52 2 111 66 63 69 101 134 101 174 0 16 -22 44 -75 93 -75
69 -88 87 -61 87 20 0 31 19 18 32 -5 5 -39 16 -75 24 -35 8 -73 21 -83 28
-16 12 -13 19 45 84 39 44 75 75 95 81 63 19 131 23 208 10 64 -10 78 -16 78
-31 0 -11 -7 -18 -18 -18 -13 0 -22 -16 -35 -62 -10 -35 -24 -83 -32 -108 -11
-38 -11 -48 2 -68 8 -13 11 -32 8 -43 -6 -18 -3 -20 22 -17 21 2 29 9 31 28 7
68 15 91 42 125 23 29 30 48 30 80 0 28 7 51 21 69 18 23 26 26 57 21 35 -6
36 -5 18 9 -19 15 -19 16 -1 36 10 11 21 20 26 20 4 0 29 -17 56 -38 45 -37
103 -124 103 -158 0 -7 6 -11 13 -9 13 5 67 -60 67 -82 0 -21 -18 -6 -36 29
-8 16 -18 28 -21 25 -6 -7 10 -39 53 -102 32 -49 89 -206 120 -329 8 -34 19
-133 24 -221 8 -144 7 -163 -9 -195 -26 -51 -84 -230 -77 -237 3 -3 15 16 27
43 12 27 37 84 56 127 34 77 57 197 35 183 -16 -9 -20 31 -21 218 -1 113 -5
173 -12 180 -9 8 -10 -1 -5 -34 4 -24 4 -41 0 -38 -7 8 -64 167 -64 181 0 19
19 -5 25 -32 5 -24 35 -65 35 -48 0 13 -35 88 -62 130 -17 26 -41 81 -53 122
-26 82 -58 128 -169 237 -38 37 -63 68 -57 68 6 0 11 4 11 10 0 5 -12 9 -27
10 -16 0 -66 2 -113 4 -60 3 -109 -1 -165 -14z m-186 -416 c30 -12 43 -25 55
-55 10 -23 22 -39 32 -39 15 0 15 2 -2 21 -19 21 -19 21 1 18 29 -6 31 -51 4
-105 -18 -38 -25 -45 -43 -39 -11 4 -42 9 -67 12 -42 5 -49 3 -64 -20 -11 -17
-16 -41 -14 -69 3 -41 2 -43 -21 -40 -40 6 -67 39 -75 90 -4 26 -11 54 -16 64
-12 23 15 107 42 127 73 54 105 61 168 35z"/>
<path d="M825 9983 c-66 -9 -213 -43 -257 -58 -38 -14 -65 -37 -135 -114 -48
-53 -100 -111 -115 -129 -31 -37 -35 -38 -41 -14 -3 9 -5 -1 -6 -24 0 -22 -8
-49 -16 -60 -8 -10 -15 -39 -16 -64 -2 -34 -3 -38 -6 -15 -3 17 -9 34 -14 40
-13 13 -11 -325 2 -404 7 -36 27 -97 45 -135 19 -39 34 -77 34 -86 0 -31 38
-134 50 -138 13 -5 10 54 -6 108 l-8 25 30 -28 c32 -30 121 -97 129 -97 21 0
-8 36 -80 99 -97 83 -111 108 -124 225 -6 44 -15 96 -22 114 -19 54 -7 267 18
322 31 68 113 185 179 252 65 67 175 128 231 128 17 0 44 5 60 11 96 40 201
19 270 -53 32 -34 170 -301 217 -420 25 -64 26 -73 26 -283 0 -206 -1 -221
-25 -286 -13 -38 -32 -81 -41 -95 -12 -17 -14 -28 -7 -35 13 -13 103 135 103
168 0 12 4 33 10 47 6 16 6 108 1 248 -9 242 -12 256 -82 366 -16 25 -35 69
-44 97 -22 76 -131 216 -198 254 -53 30 -109 42 -162 34z"/>
<path d="M6206 9974 c-67 -13 -204 -56 -230 -71 -7 -5 -34 -33 -60 -63 -137
-158 -171 -191 -178 -173 -4 12 -7 5 -7 -20 -1 -21 -8 -49 -17 -62 -10 -16
-14 -36 -11 -54 7 -32 -1 -71 -14 -71 -5 0 -9 21 -9 47 0 35 -3 44 -11 36 -8
-8 -10 -66 -6 -200 6 -198 17 -263 57 -328 12 -19 28 -63 36 -96 14 -62 42
-125 50 -116 3 3 -1 18 -9 34 -19 36 -32 103 -20 103 5 0 17 -14 27 -30 16
-29 131 -98 143 -86 3 2 -21 18 -53 34 -76 38 -106 84 -152 227 -46 148 -55
295 -23 399 11 37 21 81 21 96 0 36 112 170 144 171 12 0 15 3 9 6 -23 9 -14
28 40 80 57 56 85 73 117 73 11 0 32 7 45 16 32 21 153 44 231 44 59 0 65 -2
130 -52 98 -77 97 -81 -25 -73 -86 7 -101 5 -101 -7 0 -15 24 -28 79 -44 l24
-6 -30 -13 c-60 -26 -133 -119 -133 -171 0 -28 70 -114 110 -134 21 -11 65
-22 97 -24 l58 -5 -50 9 c-56 10 -125 39 -125 52 0 4 13 8 28 8 69 0 162 79
162 137 0 14 4 21 10 18 15 -9 60 -101 60 -121 0 -10 3 -14 6 -11 18 17 -24
106 -83 179 l-63 78 40 0 c27 0 40 -4 40 -14 0 -7 9 -16 19 -19 19 -5 57 -64
47 -74 -2 -3 -12 10 -22 29 -10 19 -19 28 -22 20 -2 -8 10 -31 28 -53 18 -23
48 -86 71 -152 22 -62 45 -116 50 -122 15 -14 0 44 -18 73 -15 25 -12 39 6 28
12 -8 31 -71 31 -104 0 -15 -4 -21 -11 -16 -9 5 -10 -1 -5 -22 4 -16 10 -85
15 -154 4 -69 11 -131 14 -138 4 -6 -8 -44 -27 -84 -33 -71 -69 -178 -62 -185
6 -7 23 23 49 87 14 36 32 78 41 95 20 39 31 112 19 128 -6 6 -13 86 -17 177
-6 162 -7 166 -41 235 -19 39 -43 86 -55 105 -11 19 -25 54 -30 76 -11 46
-108 174 -159 212 -90 66 -103 72 -155 71 -28 -1 -82 -7 -120 -15z"/>
<path d="M8187 9833 c-13 -12 -7 -22 9 -16 9 3 -9 -18 -39 -46 -94 -89 -109
-150 -56 -233 44 -69 101 -100 195 -106 219 -14 235 143 37 356 -45 48 -53 52
-94 52 -25 0 -49 -3 -52 -7z m111 -29 c12 -8 22 -18 22 -23 0 -5 18 -28 40
-52 42 -45 86 -127 96 -177 5 -23 -1 -37 -25 -64 -17 -20 -40 -38 -51 -41 -16
-4 -20 0 -20 23 0 15 -9 39 -21 54 -17 21 -29 26 -68 26 -53 0 -91 -21 -91
-52 0 -21 0 -21 -21 -2 -30 27 -79 102 -79 121 0 52 105 183 146 183 11 0 14
5 10 16 -5 12 -1 14 17 9 12 -4 32 -13 45 -21z"/>
<path d="M935 9798 c-45 -16 -54 -26 -86 -96 -38 -84 -40 -152 -5 -187 49 -49
104 -68 213 -73 125 -6 133 -1 133 75 0 49 -5 60 -55 132 -57 82 -136 162
-157 160 -7 0 -26 -5 -43 -11z m156 -136 c7 -15 26 -42 41 -60 35 -42 37 -84
3 -117 -31 -32 -43 -31 -51 3 -12 58 -22 72 -54 72 -20 0 -43 -11 -69 -36
l-40 -35 -31 22 c-17 13 -35 39 -41 59 -9 31 -8 42 15 84 14 27 31 55 36 61 6
7 9 18 8 25 -2 7 6 13 17 14 11 1 29 7 40 14 17 9 26 5 66 -35 26 -25 53 -57
60 -71z"/>
<path d="M5872 9687 c-17 -30 -49 -69 -72 -87 -30 -23 -38 -36 -31 -43 8 -8
19 -8 39 -1 l28 11 1 -66 c0 -36 3 -75 6 -86 3 -11 6 -27 6 -36 1 -9 13 -24
27 -34 l26 -17 -20 29 c-11 15 -24 43 -27 62 -7 30 -5 33 11 27 30 -13 91 -19
116 -13 37 10 67 44 79 93 10 37 15 44 32 42 53 -8 47 -58 -17 -143 -44 -59
-56 -91 -16 -44 46 56 71 98 76 131 6 32 2 39 -37 76 -42 39 -47 41 -104 41
-62 0 -128 -17 -74 -18 31 -1 52 -35 47 -77 -2 -23 -9 -30 -30 -32 -57 -7 -62
84 -9 158 37 51 37 74 0 78 -23 3 -31 -5 -57 -51z"/>
<path d="M480 9639 c-72 -19 -94 -40 -111 -101 -13 -50 6 -158 34 -194 16 -21
27 -24 82 -24 48 0 67 4 77 17 7 9 33 36 57 60 41 40 45 49 49 103 4 51 2 60
-17 72 -11 7 -21 21 -21 30 0 10 -9 22 -19 28 -49 26 -67 27 -131 9z m89 -34
c32 -16 71 -83 71 -120 0 -14 -9 -34 -21 -46 -19 -19 -22 -19 -38 -5 -22 20
-94 21 -110 3 -6 -8 -14 -28 -17 -46 -9 -45 -18 -45 -38 -3 -26 54 -32 132
-13 169 29 55 109 78 166 48z"/>
<path d="M2489 9456 c-47 -17 -229 -147 -290 -207 -48 -48 -49 -50 -49 -109 0
-35 8 -81 19 -110 24 -62 9 -56 -20 8 -12 26 -23 42 -25 36 -11 -27 54 -128
78 -122 7 1 25 -6 41 -16 42 -28 97 -45 147 -45 72 -1 84 6 112 63 21 41 25
62 21 99 -7 57 0 86 27 115 34 36 72 29 110 -20 40 -51 118 -115 145 -118 73
-8 98 0 140 44 95 99 97 162 6 248 -80 77 -140 116 -207 133 -70 18 -206 19
-255 1z"/>
<path d="M6405 9392 c-39 -20 -109 -64 -157 -98 -80 -55 -93 -61 -145 -63 -77
-3 -90 -12 -99 -66 -8 -59 2 -108 27 -131 12 -11 29 -35 39 -55 25 -47 61 -70
98 -63 22 5 49 -3 105 -31 60 -30 87 -37 139 -38 56 -2 69 2 101 25 57 44 79
82 88 156 18 150 31 208 59 276 17 39 30 76 30 83 0 17 -55 32 -140 37 -71 4
-78 3 -145 -32z m225 11 c7 -7 -49 -53 -64 -53 -7 0 -21 9 -31 20 -26 29 -32
26 -56 -26 -12 -25 -33 -51 -46 -57 -20 -9 -28 -6 -53 18 -17 16 -30 33 -30
37 0 5 33 24 73 42 64 29 79 32 137 28 36 -3 67 -7 70 -9z m43 -19 c3 -4 -2
-23 -12 -43 -34 -66 -61 -173 -68 -263 -7 -98 -20 -131 -42 -104 -10 12 -11
16 -1 16 10 0 10 3 0 15 -10 13 -10 19 5 35 10 11 13 20 7 20 -6 0 -17 -9 -24
-19 -8 -11 -28 -21 -48 -23 -30 -3 -35 -7 -38 -31 -3 -26 -6 -28 -33 -22 -26
6 -29 4 -29 -20 0 -26 -2 -27 -35 -21 -28 6 -35 4 -35 -9 0 -9 5 -13 11 -10
20 13 59 -4 59 -26 0 -18 -4 -20 -32 -14 -18 4 -53 18 -78 32 -25 14 -67 34
-94 44 -41 17 -47 17 -43 4 4 -8 2 -15 -4 -15 -11 0 -59 49 -59 61 0 4 -16 27
-36 50 -33 40 -36 47 -31 93 5 60 34 89 81 84 26 -3 31 -7 29 -28 -8 -73 -24
-87 -58 -50 -10 11 -23 20 -28 20 -6 0 0 -11 13 -25 27 -28 80 -35 80 -10 0
10 11 15 35 15 30 0 38 5 51 34 15 31 18 33 44 23 41 -16 75 10 84 62 6 42 19
53 30 26 3 -9 18 -15 36 -15 36 0 76 35 86 74 7 31 15 32 39 6 24 -27 39 -25
77 10 33 29 49 36 61 24z"/>
<path d="M1129 9233 c-9 -2 -27 -24 -40 -48 -33 -62 -62 -74 -199 -78 -112 -4
-117 -5 -197 -45 -46 -23 -83 -47 -83 -53 0 -6 3 -9 8 -7 4 2 47 24 96 48 l90
44 188 4 188 4 6 25 c12 48 -10 117 -36 112 -3 -1 -12 -3 -21 -6z"/>
<path d="M8070 9151 c-45 -25 -83 -65 -109 -116 -24 -47 -33 -156 -13 -162 6
-3 12 1 12 8 0 18 82 90 97 85 7 -3 13 -1 13 4 0 5 -8 11 -18 14 -24 8 -55 62
-47 85 3 10 14 26 25 36 18 16 20 15 44 -24 28 -44 33 -80 14 -99 -9 -9 -8
-12 5 -12 12 0 17 8 17 29 0 37 11 44 44 31 25 -9 26 -8 26 25 0 39 0 39 34
23 21 -9 29 -8 43 4 10 8 26 18 36 21 28 10 20 24 -24 41 -67 27 -157 30 -199
7z"/>
<path d="M2510 8079 c-25 -4 -85 -8 -135 -8 -96 -2 -115 -9 -147 -62 -29 -46
-50 -177 -52 -324 -2 -77 -7 -183 -14 -235 -6 -52 -13 -223 -17 -381 -4 -206
-10 -298 -20 -334 -20 -63 -19 -75 2 -45 19 27 20 43 43 550 5 129 12 308 15
398 2 90 7 167 9 171 3 4 7 31 11 61 8 81 42 158 76 175 26 14 82 17 306 18
29 0 78 -7 110 -16 32 -8 89 -21 127 -27 90 -14 124 -33 144 -78 17 -38 49
-75 73 -85 8 -4 -15 -3 -51 1 -36 4 -95 7 -132 6 -68 -1 -68 -1 -68 26 0 32
-14 46 -55 54 l-30 6 33 -15 c27 -13 33 -20 30 -43 -3 -24 -8 -27 -46 -30 -23
-2 -80 4 -125 12 -46 9 -101 16 -123 16 -21 1 -73 7 -114 15 -143 28 -140 28
-97 8 l37 -18 -29 -19 c-44 -30 -65 -72 -63 -131 2 -66 24 -117 79 -182 59
-69 107 -88 205 -80 106 7 165 29 226 83 50 44 54 45 67 28 7 -11 19 -39 25
-64 18 -72 39 -106 76 -123 37 -18 46 -47 14 -47 -11 0 -20 5 -20 10 0 14 -46
12 -57 -2 -6 -7 -13 -40 -17 -73 -9 -84 -57 -277 -73 -296 -16 -20 -17 -36 0
-42 9 -4 9 -7 -1 -18 -10 -10 -19 -11 -45 -1 -31 11 -71 18 -162 26 -22 2 -60
9 -85 15 -70 18 -185 39 -189 35 -9 -9 11 -15 135 -39 144 -29 173 -46 132
-79 -19 -15 -33 -17 -83 -11 -121 14 -118 15 -142 -35 -11 -25 -24 -66 -27
-92 -5 -34 -11 -48 -22 -48 -9 0 -12 -5 -8 -11 3 -6 0 -15 -7 -20 -10 -6 -6
-8 13 -7 24 2 27 7 39 68 6 36 17 81 24 100 l12 35 107 0 c113 0 132 8 122 48
-4 17 1 18 57 15 34 -3 77 -11 94 -18 29 -13 35 -12 50 3 15 15 16 20 5 38
-11 18 -11 24 2 38 9 10 16 26 16 37 0 26 30 154 41 179 6 11 12 45 14 75 2
30 4 58 4 63 1 11 49 9 56 -3 11 -18 47 -11 52 10 5 18 14 20 104 20 108 0
141 9 182 48 32 30 34 54 11 155 -19 83 -51 152 -95 201 l-30 35 49 -6 c42 -5
53 -2 71 16 50 50 12 111 -68 111 -28 0 -53 -4 -56 -10 -4 -6 16 -10 54 -10
57 0 61 -1 67 -27 9 -36 -7 -57 -47 -61 -49 -5 -119 7 -119 21 0 7 -14 21 -30
32 -17 11 -39 38 -49 60 -27 60 -51 73 -176 95 -38 7 -92 18 -120 26 -67 18
-121 22 -175 13z m-70 -198 c36 -5 105 -14 154 -21 97 -12 146 -31 153 -61 3
-10 11 -19 17 -19 15 0 36 -63 31 -91 -9 -45 -91 -129 -149 -154 -65 -27 -103
-35 -176 -36 -91 -1 -123 13 -180 80 -88 106 -92 215 -11 284 35 29 56 32 161
18z m546 -39 c84 -17 93 -21 134 -63 60 -62 97 -146 105 -244 7 -76 6 -81 -17
-101 -34 -31 -82 -44 -163 -44 -129 0 -195 37 -215 122 -7 29 -21 67 -30 83
-16 26 -17 33 -5 55 19 33 18 66 -2 122 -14 41 -15 48 -1 61 14 15 42 23 83
25 11 1 61 -7 111 -16z"/>
<path d="M2535 7791 c-81 -37 -82 -72 -1 -157 47 -50 53 -54 96 -53 55 1 101
26 113 62 7 22 3 34 -22 69 -71 103 -104 117 -186 79z"/>
<path d="M3003 7675 c-43 -18 -53 -42 -53 -121 0 -64 2 -68 36 -100 32 -31 41
-34 98 -34 50 0 69 5 91 22 25 20 27 26 23 79 -5 68 -42 129 -93 153 -40 19
-60 20 -102 1z m105 -19 c23 -12 62 -63 62 -79 0 -5 -12 1 -27 13 -20 15 -35
19 -57 14 -48 -9 -76 -32 -76 -59 0 -30 53 -92 83 -98 12 -2 0 -5 -26 -6 -39
-1 -53 4 -72 24 -22 21 -25 33 -25 95 0 71 0 71 21 56 19 -13 24 -13 45 1 30
19 32 48 4 40 -11 -3 -18 -1 -14 4 8 13 55 10 82 -5z"/>
<path d="M4245 8010 c-148 -32 -226 -65 -270 -113 -51 -56 -75 -85 -75 -95 0
-4 -18 -20 -40 -36 -22 -17 -40 -33 -40 -36 0 -4 -14 -27 -32 -51 l-32 -44 -7
30 c-6 29 -7 29 -8 -8 0 -21 -7 -50 -15 -65 -20 -40 -28 -82 -16 -82 5 0 10 8
11 18 0 9 3 12 5 5 3 -6 -2 -33 -11 -58 -8 -26 -18 -86 -21 -133 -3 -48 -7
-88 -9 -90 -2 -3 -4 59 -3 137 0 79 -3 145 -7 149 -4 4 -5 -99 -2 -228 5 -255
11 -288 66 -394 17 -33 31 -72 31 -87 0 -35 38 -139 51 -139 12 0 12 1 -10 51
-24 56 -37 124 -21 114 6 -4 22 -24 35 -46 18 -28 44 -48 95 -74 39 -19 70
-31 70 -25 0 5 -31 26 -70 45 -45 23 -75 45 -84 63 -8 15 -23 36 -35 46 -12
11 -21 29 -21 42 0 13 -11 58 -23 101 -42 137 -47 171 -47 291 0 93 4 128 20
170 11 29 20 70 20 92 0 33 8 48 55 101 30 34 55 67 55 75 0 7 13 22 28 33 16
11 48 45 72 75 63 83 94 99 199 100 47 0 109 -2 136 -6 l50 -8 -42 13 c-23 6
-45 15 -48 19 -6 6 10 5 110 -6 36 -3 121 -46 227 -112 28 -18 46 -43 77 -109
23 -47 45 -85 50 -85 5 0 16 -7 25 -15 16 -17 98 -269 115 -355 14 -72 23
-338 12 -344 -5 -3 -25 -50 -44 -103 -46 -127 -50 -143 -39 -143 7 0 60 117
108 240 16 43 18 107 3 112 -7 2 -12 30 -12 69 -1 92 43 197 86 206 16 3 31
12 34 19 3 8 0 60 -6 117 -22 192 -20 187 -54 207 -17 11 -34 17 -39 14 -4 -3
-8 8 -8 24 0 43 41 77 95 77 85 0 149 -78 187 -226 32 -127 18 -214 -48 -306
l-16 -23 54 0 c46 0 58 -4 81 -28 34 -35 37 -90 7 -117 -11 -10 -46 -22 -77
-27 -68 -11 -94 -28 -42 -28 46 0 123 -26 144 -50 13 -15 14 -23 5 -39 -10
-19 -20 -21 -100 -21 -53 0 -90 -4 -90 -10 0 -5 24 -10 53 -10 42 0 63 -6 101
-31 54 -34 74 -33 26 1 l-31 22 30 19 c20 12 31 27 31 41 0 33 -11 45 -59 66
l-43 20 34 16 c61 29 74 90 33 147 -29 38 -46 47 -92 48 l-32 1 24 36 c14 20
25 40 25 43 0 3 4 33 10 65 17 103 -31 279 -93 344 -42 44 -78 62 -122 62 -80
0 -128 -56 -105 -124 6 -20 20 -41 30 -46 10 -5 29 -29 43 -53 21 -35 26 -58
28 -127 4 -92 -1 -110 -32 -110 -13 0 -26 -14 -41 -45 -12 -25 -25 -45 -28
-45 -3 0 -7 41 -9 92 -3 99 -26 171 -80 253 -33 50 -51 90 -51 116 0 11 -7 34
-16 51 -23 45 -132 177 -163 196 -14 9 -33 24 -41 33 -48 52 -139 61 -285 29z
m234 -13 c28 -13 115 -116 107 -124 -3 -3 -45 17 -93 45 -86 50 -91 51 -193
58 l-105 8 55 11 c75 16 199 18 229 2z"/>
<path d="M830 7960 c0 -5 5 -10 10 -10 29 0 1 -20 -75 -54 -100 -45 -170 -97
-211 -158 -16 -24 -33 -46 -38 -49 -4 -4 -10 -36 -13 -72 -5 -58 -2 -73 21
-120 30 -62 137 -184 173 -198 24 -9 23 -29 -1 -29 -7 0 -64 -16 -126 -36 -90
-29 -120 -43 -144 -69 -47 -50 -56 -63 -68 -97 -14 -41 -75 -144 -114 -193
-17 -22 -39 -54 -48 -72 -18 -35 -22 -113 -6 -113 6 0 10 18 10 39 0 22 4 43
10 46 5 3 10 -3 10 -13 0 -24 35 -70 45 -60 4 4 0 19 -9 32 -18 28 -20 54 -7
75 7 11 15 2 33 -34 23 -49 51 -75 64 -62 4 4 -2 17 -14 30 -20 21 -42 67 -42
88 0 18 30 8 63 -21 38 -33 47 -36 47 -17 0 21 -41 53 -83 67 l-38 12 26 45
c14 25 25 51 25 58 0 7 7 19 16 26 9 7 26 36 39 64 36 80 74 108 200 149 132
42 197 52 252 37 47 -13 46 -12 62 -111 7 -41 20 -106 28 -145 20 -90 101
-343 113 -350 21 -13 16 18 -25 140 -88 269 -86 261 -99 390 l-6 50 25 -40
c14 -22 34 -51 44 -65 11 -14 33 -42 49 -62 16 -21 32 -35 35 -32 2 3 22 -16
43 -41 38 -47 108 -89 189 -115 22 -7 45 -15 50 -19 6 -3 30 -13 55 -21 47
-16 48 -17 39 -84 -2 -17 1 -31 9 -33 7 -3 12 4 12 19 0 13 5 30 10 38 7 11
10 4 10 -27 0 -24 5 -43 10 -43 6 0 10 7 10 16 0 8 5 12 10 9 6 -3 10 -15 10
-26 0 -10 5 -19 10 -19 15 0 12 53 -5 94 -12 29 -27 43 -68 62 -29 13 -57 24
-62 24 -25 0 -185 71 -232 102 -29 19 -71 57 -93 85 -22 28 -47 53 -55 57 -8
3 -15 10 -15 15 0 6 -13 31 -30 57 -16 26 -27 51 -24 55 3 5 40 9 83 9 168 0
257 80 296 267 29 138 18 207 -51 307 -31 46 -40 66 -29 66 8 0 15 5 15 10 0
6 -11 10 -25 10 -14 0 -46 11 -72 24 -66 34 -150 51 -186 37 -35 -14 -104 -14
-112 -1 -3 6 -13 10 -21 10 -8 0 -14 -4 -14 -10z m271 -34 c19 -4 44 -12 54
-20 18 -13 17 -14 -13 -30 -79 -41 9 -148 109 -132 36 6 38 5 49 -30 29 -88 7
-249 -46 -337 -27 -43 -93 -97 -119 -97 -7 0 -17 -4 -20 -10 -8 -13 -161 -13
-186 0 -11 6 -19 21 -19 35 0 35 -14 39 -76 16 -71 -27 -78 -27 -135 10 -70
45 -156 162 -171 231 -11 52 -10 59 16 109 15 30 37 66 50 80 24 28 122 99
137 99 4 0 23 -9 41 -19 69 -41 193 -36 239 10 11 11 24 17 29 14 12 -8 50 17
50 32 0 7 -9 13 -20 13 -11 0 -20 -5 -20 -10 0 -6 -13 -4 -30 5 -16 8 -38 15
-49 15 -11 0 -23 5 -27 12 -5 8 2 9 24 5 21 -4 32 -2 36 8 4 11 12 12 33 5 15
-4 44 -11 64 -14z"/>
<path d="M6190 7915 c-30 -6 -89 -22 -130 -35 -67 -20 -82 -30 -133 -84 -150
-157 -239 -285 -219 -316 7 -11 6 -25 -3 -45 l-12 -30 -6 25 c-4 14 -8 36 -10
50 -3 14 -5 -56 -6 -154 -1 -211 10 -289 54 -371 18 -33 36 -80 39 -104 7 -43
34 -107 42 -98 2 2 -3 20 -11 40 -8 20 -15 49 -15 64 l0 28 33 -37 c30 -33
134 -94 144 -84 5 4 -38 30 -88 52 -54 24 -102 122 -151 309 -15 60 -11 269 7
312 8 20 15 53 15 74 0 31 8 48 45 89 25 28 45 55 45 61 0 6 36 48 81 94 72
74 88 86 152 108 85 30 210 57 264 57 60 0 170 -67 199 -122 8 -15 14 -29 14
-33 0 -12 -123 -4 -151 11 -35 17 -48 12 -29 -11 11 -13 8 -15 -18 -15 -17 0
-38 7 -47 16 -9 9 -19 14 -22 11 -3 -4 -14 -2 -24 4 -28 14 -24 -7 4 -26 13
-8 47 -19 77 -25 29 -6 55 -12 57 -14 2 -2 -13 -17 -33 -34 -82 -68 -95 -131
-42 -206 41 -59 85 -79 180 -84 75 -4 78 -3 108 26 53 53 36 132 -50 236 -22
26 -40 53 -40 58 0 16 72 1 91 -19 20 -22 37 -69 20 -59 -6 4 -11 13 -11 20 0
8 -7 19 -15 26 -26 21 -17 -5 21 -59 19 -29 51 -98 70 -154 20 -56 40 -106 45
-111 14 -15 11 6 -6 47 -17 42 -18 47 -6 47 12 0 31 -56 31 -91 0 -16 -4 -29
-9 -29 -5 0 -3 -28 6 -62 10 -46 13 -108 11 -228 -3 -145 -6 -170 -24 -205
-19 -35 -40 -79 -52 -110 -3 -5 11 5 31 24 60 57 71 121 63 358 -3 109 -6 212
-6 229 1 43 -36 137 -76 199 -18 28 -38 70 -44 95 -12 46 -38 100 -54 111 -5
4 1 10 13 14 11 3 21 13 21 21 0 16 -18 18 -39 5 -11 -7 -28 3 -65 41 -28 28
-70 64 -95 80 -39 24 -54 28 -115 27 -39 -1 -96 -7 -126 -14z m334 -252 c53
-63 96 -144 96 -181 0 -13 -13 -37 -29 -53 -26 -25 -37 -29 -88 -29 -35 0 -74
8 -99 19 -48 22 -114 98 -114 132 0 32 32 82 76 122 73 64 97 62 158 -10z"/>
<path d="M8080 7881 c0 -14 28 -33 39 -27 27 17 227 -110 299 -189 43 -47 54
-68 85 -167 20 -62 46 -152 58 -199 20 -82 20 -88 4 -119 -14 -27 -14 -34 -4
-41 11 -6 11 -11 1 -21 -17 -17 -15 -25 8 -31 11 -3 20 -10 20 -16 0 -6 -7 -8
-15 -5 -8 4 -15 2 -15 -2 0 -5 -2 -40 -5 -79 -3 -47 0 -72 8 -78 8 -6 6 -7 -5
-3 -13 4 -18 0 -18 -12 0 -10 -7 -27 -15 -39 -8 -12 -12 -28 -9 -36 3 -9 -4
-37 -15 -63 -12 -25 -21 -50 -21 -55 0 -14 28 -11 34 4 5 9 8 9 12 -2 5 -10
12 -4 25 20 10 19 18 28 19 21 0 -7 -5 -23 -11 -34 -8 -16 -8 -19 2 -16 7 2
21 26 31 54 17 45 17 33 2 -31 -3 -14 -2 -25 4 -25 13 0 33 104 21 108 -14 6
-11 22 5 22 18 0 26 72 26 240 0 156 -13 227 -64 359 -21 51 -41 113 -45 137
-5 24 -13 49 -18 56 -5 7 -16 29 -23 48 -14 36 -77 110 -94 110 -5 0 1 -11 14
-25 13 -14 18 -25 12 -25 -7 0 -22 16 -34 35 -14 21 -46 47 -83 66 -33 18 -72
40 -87 51 -27 19 -148 27 -148 9z"/>
<path d="M7786 7719 c-3 -17 -7 -50 -7 -73 -1 -22 -5 -54 -8 -71 l-7 -30 -18
40 c-17 41 -62 95 -79 95 -4 0 2 -14 14 -32 l23 -31 -37 6 c-28 4 -37 2 -37
-9 0 -8 -6 -14 -12 -15 -7 0 -3 -5 10 -11 24 -12 26 -46 1 -39 -33 10 -160 4
-172 -8 -9 -10 -3 -12 33 -9 53 3 58 -13 7 -27 -19 -5 -44 -18 -54 -27 -11
-10 -29 -18 -41 -18 -23 0 -77 -51 -87 -82 -3 -9 -12 -15 -19 -12 -8 3 -16 -4
-20 -18 -9 -35 -7 -48 7 -48 27 0 134 78 156 114 25 40 61 53 40 15 -6 -12 -7
-19 -2 -17 66 36 133 55 133 39 0 -6 -5 -11 -12 -11 -6 0 -9 -2 -7 -4 2 -2 29
2 59 10 60 16 100 18 100 6 0 -4 -27 -13 -61 -19 -76 -15 -155 -53 -201 -97
l-36 -35 -1 -96 c-1 -75 1 -96 11 -93 7 3 14 18 16 35 2 22 17 42 57 77 29 25
65 50 79 56 17 6 26 17 26 31 0 19 -3 18 -42 -12 -24 -18 -64 -53 -90 -78 -47
-44 -48 -45 -48 -19 0 42 16 72 57 112 42 40 116 80 135 73 7 -2 -10 -14 -39
-27 -29 -12 -58 -28 -64 -36 -16 -20 -2 -17 36 6 17 11 47 19 66 18 19 0 49 7
67 16 34 17 52 15 52 -8 0 -21 -74 -100 -114 -121 -20 -11 -36 -23 -36 -27 0
-14 16 -9 56 18 l39 25 -38 -36 c-21 -21 -37 -39 -35 -41 2 -2 26 8 53 21 62
29 125 102 125 143 0 33 -22 57 -45 48 -8 -3 -15 -1 -15 4 0 6 -8 10 -17 11
-14 0 -13 2 5 9 12 5 30 6 39 3 13 -5 15 -2 10 11 -4 10 -7 24 -7 31 0 7 -12
18 -27 23 l-28 10 27 1 c14 1 28 -4 30 -10 2 -7 30 -14 62 -16 l57 -4 -7 37
c-6 33 -5 36 11 30 12 -4 16 -2 12 7 -3 8 3 13 14 14 17 2 18 0 4 -13 -19 -19
-19 -35 -1 -59 13 -18 15 -18 50 13 41 36 72 40 118 16 21 -11 43 -14 72 -10
87 14 122 8 98 -16 -8 -8 0 -21 34 -51 56 -49 51 -53 -73 -68 -124 -15 -185
-32 -311 -88 -132 -59 -207 -105 -278 -173 -53 -50 -54 -50 -54 -24 0 15 6 42
14 60 13 32 13 34 -9 34 -19 0 -24 -8 -33 -52 -18 -82 -21 -125 -11 -132 5 -3
16 -22 25 -42 19 -47 72 -102 90 -95 10 4 12 0 7 -13 -6 -17 -5 -18 13 -4 10
8 16 10 12 6 -4 -5 7 -16 25 -25 17 -9 32 -22 32 -30 0 -8 7 -16 15 -18 13 -4
13 -3 0 6 -9 7 -11 11 -3 11 7 0 17 -8 22 -17 6 -10 11 -14 11 -10 0 4 8 3 18
-2 23 -12 152 2 239 28 37 10 94 27 126 35 31 9 57 22 57 29 0 7 19 22 43 35
34 18 48 35 74 90 18 37 35 87 38 112 4 25 9 56 12 70 11 53 22 -14 16 -102
-5 -85 -2 -97 24 -80 19 12 43 119 43 189 0 76 -17 84 -23 11 l-3 -53 -2 63
c-1 40 2 61 8 57 6 -4 10 8 10 29 0 28 -4 36 -17 36 -13 0 -14 3 -6 8 9 6 0
27 -33 76 -25 37 -48 65 -51 63 -2 -3 1 -15 7 -28 11 -19 6 -17 -34 11 -46 33
-64 60 -27 40 40 -21 55 -6 25 24 -8 9 -29 16 -45 16 -29 0 -42 24 -16 33 6 2
9 7 6 11 -9 10 -39 -4 -39 -18 0 -13 -115 -40 -130 -31 -6 3 -10 13 -10 21 0
10 14 14 58 14 49 1 55 2 40 14 -10 7 -18 18 -18 24 0 18 -32 22 -90 13 -30
-5 -59 -6 -64 -1 -4 4 -21 4 -37 0 -19 -6 -31 -5 -35 3 -4 7 -4 9 1 5 4 -4 13
-1 19 7 7 9 31 16 61 18 28 2 57 7 64 12 8 4 47 7 87 6 59 -2 74 1 74 13 0 16
-30 24 -125 36 -77 9 -215 -27 -257 -67 -32 -31 -35 -43 -10 -43 14 0 15 -2 2
-10 -9 -5 -19 -5 -26 1 -6 5 -18 7 -26 4 -29 -11 -46 89 -27 154 2 7 -1 15 -7
18 -6 2 -14 -10 -18 -28z m531 -451 c13 -35 24 -78 26 -96 2 -17 7 -35 10 -39
4 -3 7 -35 7 -70 0 -51 -5 -74 -25 -108 -29 -49 -64 -84 -52 -52 5 15 3 17
-11 12 -16 -5 -22 6 -41 77 -32 120 -32 120 9 131 43 11 55 -3 65 -78 3 -30
11 -57 16 -60 12 -8 11 20 -3 89 -9 48 -9 59 3 67 11 7 11 9 -3 9 -15 0 -108
128 -108 148 0 9 47 29 70 31 10 1 23 -21 37 -61z m-88 -39 c47 -70 50 -84 19
-93 -51 -13 -65 -7 -98 43 -17 27 -38 55 -46 61 -21 18 -17 26 19 38 56 18 64
14 106 -49z m-112 -35 c23 -32 42 -65 43 -72 0 -13 -57 -42 -83 -42 -12 0
-102 129 -95 135 17 15 75 44 83 42 6 -2 29 -30 52 -63z m-247 -15 c-8 -5 -33
-19 -55 -31 -22 -11 -42 -22 -43 -23 -6 -5 48 -108 65 -128 15 -16 15 -19 -3
-32 -20 -16 -54 -29 -58 -23 -2 1 -22 31 -44 65 l-42 62 23 16 c12 8 22 20 22
26 0 11 121 79 140 79 6 0 3 -5 -5 -11z m37 -90 c18 -30 31 -59 29 -66 -3 -6
2 -14 10 -17 15 -6 84 -145 84 -169 0 -13 -154 -55 -181 -49 -10 2 -25 28 -38
68 -11 35 -21 66 -21 69 0 2 14 12 31 21 26 13 33 14 40 2 8 -12 36 -84 45
-115 2 -7 8 -13 14 -13 16 0 12 21 -15 78 -31 66 -31 75 -2 96 22 15 22 16 -7
6 -16 -6 -30 -9 -31 -8 -14 14 -75 112 -75 119 0 11 60 40 75 35 5 -1 24 -27
42 -57z m279 -21 c20 -38 44 -123 44 -154 0 -15 -11 -25 -41 -37 -23 -9 -46
-14 -50 -11 -5 3 -9 21 -9 40 0 19 -11 62 -25 96 -14 34 -24 62 -22 63 1 1 20
9 42 17 22 9 41 16 42 17 1 1 10 -14 19 -31z m-99 -74 c14 -31 28 -76 31 -99
4 -40 3 -43 -27 -53 -31 -11 -33 -10 -47 26 -9 20 -26 61 -40 91 -25 57 -24
67 10 81 39 16 47 11 73 -46z"/>
<path d="M3964 7701 c-80 -36 -134 -139 -113 -217 16 -55 116 -123 184 -124
45 0 116 40 142 79 26 38 30 100 11 163 -8 27 -26 51 -61 79 -57 45 -97 50
-163 20z m136 -20 c8 -10 25 -24 37 -30 29 -15 58 -108 47 -154 -24 -110 -154
-151 -255 -82 -52 37 -73 76 -66 131 12 113 179 208 237 135z"/>
<path d="M4447 7669 c-52 -34 -127 -138 -127 -176 0 -64 77 -113 179 -113 72
0 114 26 148 90 27 50 25 84 -5 128 -11 15 -22 39 -25 53 -14 55 -100 65 -170
18z m138 0 c5 -5 1 -9 -12 -9 -12 0 -25 -5 -29 -11 -5 -9 1 -10 19 -5 24 6 30
1 57 -41 36 -59 37 -84 5 -140 -35 -58 -67 -73 -141 -67 -80 7 -105 18 -132
58 l-23 34 25 49 c27 53 97 126 136 142 26 11 79 5 95 -10z"/>
<path d="M5906 7628 c-11 -38 -28 -66 -61 -98 -41 -40 -60 -71 -35 -55 15 9
12 0 -11 -40 -12 -20 -19 -39 -15 -42 8 -9 35 16 52 49 8 16 19 26 24 23 10
-6 14 1 24 47 8 35 57 62 100 55 18 -3 54 -18 81 -34 79 -46 73 -89 -26 -197
-47 -52 -54 -56 -95 -56 -36 0 -50 5 -70 27 -23 25 -25 34 -20 83 l5 55 -27
-80 c-16 -48 -32 -79 -40 -77 -6 1 -12 -5 -12 -13 0 -24 19 -17 38 14 l17 29
28 -24 c22 -19 40 -24 81 -24 51 0 55 2 103 53 61 64 83 104 83 151 0 31 -6
38 -57 71 -52 32 -64 36 -110 32 -29 -2 -50 -1 -48 3 2 4 8 26 14 48 13 62 -5
61 -23 0z"/>
<path d="M7360 7619 c-41 -12 -69 -36 -30 -25 54 14 127 18 134 7 5 -7 1 -9
-8 -5 -19 7 -144 -29 -171 -50 -12 -10 -16 -19 -10 -23 14 -11 17 -40 5 -48
-5 -3 -10 -11 -10 -16 0 -6 19 3 43 20 24 16 60 33 80 36 20 4 37 13 37 20 0
15 62 42 120 51 l45 7 -55 15 c-75 19 -138 23 -180 11z"/>
<path d="M2741 7504 c8 -10 23 -39 32 -63 l17 -44 -50 -102 c-28 -55 -50 -107
-50 -113 0 -7 -13 -30 -29 -53 -17 -22 -31 -45 -33 -51 -7 -20 -53 0 -71 31
-24 41 -22 47 23 77 28 19 43 38 51 64 12 39 4 130 -11 130 -4 0 -11 11 -14
25 -4 14 -11 25 -16 25 -13 0 -14 2 15 -54 14 -27 25 -59 25 -71 0 -42 -22
-86 -51 -101 -16 -8 -36 -25 -45 -39 -15 -23 -15 -27 5 -58 39 -63 102 -74
116 -20 3 15 17 40 31 56 13 16 24 37 24 47 0 11 13 42 30 70 16 28 33 62 36
75 3 14 10 28 15 31 25 15 -17 142 -51 152 -13 4 -13 2 1 -14z"/>
<path d="M8155 7449 c-22 -5 -76 -8 -120 -7 -88 1 -112 -13 -39 -24 25 -4 49
-10 52 -13 4 -4 -9 -4 -29 0 -29 5 -36 4 -36 -9 0 -9 4 -16 9 -16 4 0 8 -4 8
-9 0 -6 -17 -7 -37 -5 -28 4 -34 3 -23 -5 25 -17 108 -23 160 -11 55 13 58 17
33 36 -16 12 -15 14 15 20 37 7 53 23 25 25 -10 1 0 7 22 14 45 15 21 17 -40
4z"/>
<path d="M6185 7402 c-39 -24 -78 -71 -93 -108 -6 -16 -20 -87 -33 -158 -14
-83 -32 -153 -51 -194 -16 -35 -27 -66 -25 -69 9 -8 41 18 67 52 63 84 253
172 423 194 75 10 143 36 180 69 17 15 24 38 8 28 -4 -3 -20 17 -35 44 -35 65
-72 93 -110 86 -22 -5 -47 3 -98 30 -89 45 -186 56 -233 26z m217 -51 c9 -19
23 -38 30 -42 22 -15 81 -10 100 8 17 15 19 15 39 -3 18 -16 69 -104 69 -118
0 -17 -110 -57 -191 -70 -174 -28 -317 -92 -393 -176 -20 -22 -38 -40 -41 -40
-2 0 4 20 15 45 10 24 25 72 32 106 11 55 17 64 55 91 24 16 43 34 43 39 0 6
-14 -1 -31 -15 -46 -39 -52 -34 -44 31 7 59 23 103 36 103 5 0 15 -13 24 -29
30 -59 77 -48 158 38 26 28 47 56 47 62 0 23 36 2 52 -30z"/>
<path d="M4600 7271 c0 -6 7 -11 15 -11 28 0 11 -119 -35 -244 -19 -48 -31
-64 -81 -100 -48 -35 -76 -47 -143 -61 -48 -10 -106 -16 -134 -13 -82 8 -198
77 -130 78 21 1 21 2 5 11 -10 6 -27 9 -39 7 -24 -3 -46 -33 -34 -45 5 -4 11
-2 13 5 4 9 13 5 31 -13 14 -14 55 -34 93 -46 61 -19 75 -19 145 -9 42 6 94
18 116 26 49 17 130 75 152 109 16 24 55 154 74 245 l9 45 13 -30 c8 -19 14
-25 17 -16 8 21 -31 66 -60 69 -15 2 -27 -1 -27 -7z"/>
<path d="M7418 7072 c-10 -2 -18 -7 -18 -12 0 -5 -6 -7 -14 -4 -22 8 -29 -89
-12 -161 8 -33 12 -62 10 -65 -9 -8 -23 23 -30 65 -8 48 -43 124 -41 88 1 -13
5 -23 9 -23 4 0 8 -20 8 -45 0 -25 -4 -45 -10 -45 -5 0 -10 8 -10 19 0 23 -25
46 -34 32 -9 -14 5 -111 15 -111 5 0 9 -8 9 -17 0 -10 9 -37 20 -60 l19 -43
63 0 c41 0 58 3 49 9 -8 5 -14 23 -14 40 0 16 -4 28 -9 25 -4 -3 -5 3 -1 12 6
15 8 15 25 -6 10 -12 18 -35 18 -51 0 -19 5 -29 15 -29 13 0 14 4 5 20 -13 24
-10 25 38 4 23 -10 76 -18 142 -21 95 -3 103 -2 80 10 -14 8 -58 18 -97 22
l-73 7 -79 76 c-93 90 -101 104 -101 171 0 39 5 55 22 71 24 22 22 28 -4 22z"/>
<path d="M6165 5920 c-81 -17 -207 -58 -236 -75 -9 -6 -44 -43 -78 -82 -38
-45 -70 -73 -81 -73 -11 0 -20 -5 -20 -10 0 -6 -15 -8 -40 -4 -27 4 -40 3 -40
-5 0 -6 17 -11 40 -11 22 0 40 -3 40 -6 0 -3 -17 -31 -37 -62 l-38 -56 -6 29
c-6 29 -7 29 -8 4 0 -15 -10 -55 -21 -90 -14 -42 -17 -66 -10 -73 7 -7 10 -2
11 15 1 15 3 18 6 7 2 -9 -3 -33 -11 -53 -9 -21 -16 -66 -16 -103 0 -36 -2
-63 -5 -60 -3 3 -6 48 -6 99 -1 52 -5 103 -9 114 -5 12 -9 -61 -9 -175 -1
-239 13 -336 64 -434 19 -37 35 -83 35 -101 0 -35 17 -92 33 -113 16 -21 18
-7 3 29 -34 85 -26 151 10 76 9 -18 23 -38 33 -43 77 -47 131 -74 131 -65 0 5
-27 24 -61 42 -34 18 -68 43 -77 57 -10 13 -26 35 -38 50 -11 15 -26 50 -31
77 -6 28 -23 95 -37 150 -34 130 -36 309 -6 395 11 30 19 73 20 96 0 39 27 80
115 173 24 25 117 -21 165 -81 l20 -26 -49 1 c-40 2 -57 -4 -93 -28 -71 -50
-84 -101 -60 -224 16 -80 46 -106 118 -105 38 1 61 7 76 20 27 25 90 110 111
151 19 35 23 103 7 103 -5 0 -10 -16 -10 -35 0 -41 -19 -81 -66 -143 -43 -57
-71 -78 -116 -86 -36 -7 -52 4 -28 19 6 3 10 21 10 40 0 38 -30 56 -56 34 -13
-10 -17 -10 -25 2 -5 8 -9 22 -9 32 0 10 -4 26 -9 35 -5 11 -3 35 6 65 11 40
22 53 60 78 26 16 61 29 77 29 44 0 93 -33 110 -75 8 -19 20 -35 27 -35 8 0 8
4 -1 15 -10 12 -10 19 -2 27 9 9 -3 27 -45 71 -56 58 -57 61 -35 70 42 19 23
33 -73 57 -22 5 -49 16 -59 23 -18 14 -17 17 28 72 74 92 88 99 182 103 100 5
195 -13 187 -34 -3 -8 -14 -14 -24 -14 -14 0 -19 -7 -19 -30 0 -16 -9 -54 -21
-85 -15 -41 -19 -68 -15 -98 4 -23 7 -52 7 -65 1 -18 6 -22 22 -20 18 2 23 12
29 51 4 27 19 68 34 90 17 25 31 64 35 95 9 66 22 82 68 82 32 1 34 2 19 14
-17 12 -17 14 1 30 24 22 45 16 90 -26 34 -30 90 -127 92 -157 0 -11 2 -12 6
-3 7 17 66 -63 60 -80 -2 -7 -11 2 -21 20 -9 17 -21 32 -27 32 -11 0 1 -25 41
-85 33 -49 103 -252 123 -360 9 -44 17 -145 18 -225 l3 -145 -37 -93 c-42
-103 -57 -164 -38 -146 11 10 42 85 92 219 21 58 24 114 7 120 -10 4 -14 54
-15 195 -3 179 -4 194 -29 253 -14 34 -39 82 -54 107 -16 25 -36 74 -45 109
-19 74 -80 167 -162 247 -29 28 -53 55 -53 60 0 12 -95 34 -140 33 -19 -1 -71
-9 -115 -19z"/>
<path d="M7890 5900 c-47 -10 -122 -30 -167 -45 -77 -25 -86 -31 -144 -96 -41
-46 -72 -72 -91 -76 -15 -3 -28 -9 -28 -13 0 -3 -13 -5 -29 -2 -16 2 -32 -1
-35 -7 -5 -7 7 -11 35 -11 39 0 41 -1 28 -19 -74 -102 -119 -177 -119 -197 0
-14 4 -22 10 -19 13 8 13 5 -5 -45 -18 -51 -21 -270 -4 -334 25 -98 54 -180
57 -164 2 9 -9 54 -24 100 -39 117 -46 294 -15 385 12 34 21 77 21 95 1 42 12
62 78 133 51 55 53 57 92 50 45 -8 54 6 15 23 -14 6 -25 15 -25 19 0 15 103
124 129 138 47 24 331 19 347 -6 3 -5 -5 -16 -16 -26 -93 -79 -120 -121 -120
-185 l0 -33 25 30 c13 17 24 36 25 43 0 22 57 115 62 101 6 -18 28 -2 28 21 0
29 28 50 68 51 20 0 30 3 22 6 -8 4 -21 12 -28 20 -8 8 -23 11 -38 7 -22 -6
-24 -3 -24 25 0 28 3 31 33 31 54 0 167 -85 208 -157 18 -32 43 -66 55 -75 22
-18 51 -75 42 -84 -3 -2 -11 9 -18 26 -7 16 -16 30 -21 30 -17 0 -9 -23 26
-71 31 -42 71 -136 122 -289 8 -25 19 -108 24 -185 4 -77 11 -157 15 -178 5
-30 1 -48 -19 -85 -23 -44 -77 -194 -77 -216 0 -23 21 15 68 124 55 124 74
206 51 215 -11 4 -15 45 -17 187 l-3 181 -34 71 c-19 39 -49 95 -65 125 -17
29 -30 64 -30 77 0 14 -8 37 -17 52 -36 58 -129 166 -170 197 -30 23 -40 36
-31 41 15 10 -92 33 -147 32 -22 0 -78 -8 -125 -18z"/>
<path d="M2515 5850 c-44 -9 -109 -27 -144 -38 -35 -12 -69 -22 -75 -22 -12 0
-106 -87 -106 -98 0 -4 -25 -32 -55 -62 -31 -30 -72 -81 -93 -113 -37 -59 -37
-59 -40 -28 -5 49 -22 36 -22 -16 -1 -27 -7 -59 -15 -73 -8 -14 -14 -36 -13
-50 0 -17 2 -19 5 -7 5 17 23 24 23 8 0 -5 -8 -26 -17 -47 -9 -22 -20 -81 -23
-134 -7 -94 -7 -93 -8 48 -1 95 -6 142 -13 142 -16 0 -7 -439 11 -505 7 -27
28 -81 46 -120 18 -38 38 -95 45 -125 15 -69 38 -130 50 -130 13 0 12 4 -11
48 -11 21 -23 60 -27 87 -6 45 -5 49 9 37 9 -7 21 -25 27 -41 8 -19 35 -41 87
-69 70 -40 101 -51 90 -34 -2 4 -35 23 -72 42 -37 19 -74 46 -82 60 -9 14 -25
35 -35 47 -19 22 -57 140 -79 248 -5 28 -14 58 -19 67 -5 10 -9 71 -9 136 0
90 4 129 19 168 10 29 21 76 25 106 5 39 15 63 34 85 94 103 122 137 122 145
0 5 13 21 30 34 16 14 38 39 47 55 10 17 38 42 62 56 38 22 57 26 130 27 47 0
104 -3 126 -7 33 -7 37 -6 21 4 -11 6 -51 14 -89 17 -84 6 -72 16 45 38 82 16
135 34 93 33 -11 -1 -56 -9 -100 -19z"/>
<path d="M2680 5860 c25 -4 55 -12 67 -17 34 -13 154 -123 147 -135 -4 -6 -1
-14 7 -18 7 -5 21 -28 30 -52 12 -28 18 -36 19 -23 1 12 4 15 7 7 3 -7 16 -25
29 -39 13 -14 24 -35 24 -47 -1 -19 -2 -19 -13 -4 -7 9 -17 25 -23 35 -7 10
-14 15 -18 12 -3 -3 14 -37 39 -74 24 -38 52 -90 61 -117 8 -26 20 -50 25 -53
5 -4 9 -16 9 -28 0 -12 9 -45 19 -73 11 -28 27 -91 35 -140 18 -98 22 -334 6
-362 -15 -28 -37 -84 -50 -127 -7 -22 -16 -44 -20 -50 -4 -5 -10 -26 -14 -45
-10 -55 12 -23 56 82 86 202 90 222 64 295 -9 26 -14 88 -15 181 -2 193 -22
279 -82 343 -20 21 -39 55 -47 85 -26 98 -73 168 -191 282 -49 47 -60 62 -45
63 25 2 -58 18 -121 24 l-50 4 45 -9z"/>
<path d="M4213 5859 c-189 -21 -337 -68 -430 -138 -34 -24 -43 -38 -43 -60 0
-48 -17 -80 -75 -143 -82 -89 -85 -141 -17 -293 48 -107 57 -169 42 -290 -17
-137 -23 -250 -16 -279 10 -42 71 -101 129 -127 40 -17 76 -24 152 -27 87 -3
125 1 300 37 194 39 205 43 350 113 387 188 452 235 499 361 11 30 45 77 92
128 74 81 94 120 94 186 0 59 -29 108 -109 184 -61 59 -82 86 -100 134 -30 75
-90 158 -139 190 -38 25 -38 25 -343 30 -167 2 -341 0 -386 -6z m693 -49 c46
-20 67 -46 115 -140 18 -36 43 -82 56 -102 28 -46 28 -48 1 -49 -13 0 -1 -6
25 -13 54 -15 112 -64 133 -113 31 -71 7 -152 -60 -211 -20 -17 -36 -35 -36
-39 0 -4 -11 -18 -23 -32 -13 -15 -32 -48 -42 -76 -12 -36 -37 -69 -84 -116
-60 -59 -88 -76 -309 -187 -198 -100 -250 -122 -286 -122 -23 0 -69 -9 -100
-20 -145 -49 -352 -65 -456 -34 -37 11 -67 29 -94 55 l-39 40 9 137 c4 75 8
191 9 257 0 105 -3 125 -22 163 -13 23 -20 42 -18 42 3 0 22 -7 42 -15 53 -22
54 -9 1 15 -52 23 -58 33 -58 97 0 61 25 99 84 128 43 22 46 25 23 25 -40 0
-106 -64 -117 -114 -5 -22 -7 -54 -4 -70 4 -25 3 -27 -5 -11 -27 56 -3 137 59
200 42 43 60 80 60 124 0 67 169 161 289 161 27 0 52 4 55 9 5 7 149 22 341
35 28 2 131 1 230 -1 143 -4 188 -8 221 -23z"/>
<path d="M4527 5590 c-51 -13 -87 -33 -115 -63 -29 -30 -26 -53 9 -80 l27 -19
64 26 c71 28 141 34 230 22 49 -7 59 -6 64 8 9 24 -21 63 -69 87 -48 25 -150
34 -210 19z"/>
<path d="M3970 5542 c-39 -19 -51 -47 -23 -56 10 -3 58 -10 107 -16 108 -13
126 -22 126 -59 0 -24 -12 -39 -64 -80 -35 -28 -83 -62 -107 -76 -52 -29 -45
-33 10 -5 34 17 40 18 45 4 4 -10 13 -13 27 -9 15 5 32 -4 69 -39 51 -48 71
-51 91 -14 14 25 6 32 -20 19 -17 -9 -26 -6 -56 20 -46 41 -46 70 0 98 32 19
35 24 35 66 0 42 3 47 30 56 40 14 39 39 -1 39 -17 0 -42 9 -56 20 -29 22
-113 50 -152 50 -14 0 -42 -8 -61 -18z"/>
<path d="M4930 5463 c-8 -3 -40 -17 -69 -31 -74 -34 -129 -34 -176 2 -42 32
-67 32 -54 -1 23 -62 173 -78 272 -30 79 39 129 37 174 -8 37 -37 38 -41 17
-145 -7 -35 -7 -35 14 -16 47 41 51 119 10 172 -38 48 -134 77 -188 57z"/>
<path d="M4964 5399 c-6 -8 -13 -20 -15 -27 -6 -18 -157 -84 -314 -137 -296
-100 -532 -113 -680 -38 -56 29 -72 51 -82 108 -10 57 -21 61 -39 13 -47 -124
-46 -121 -41 -228 12 -252 63 -285 437 -285 241 1 292 9 417 70 116 57 182
114 257 219 37 52 73 99 81 106 8 6 11 18 9 25 -3 7 0 23 6 35 10 18 17 21 46
15 49 -9 44 14 -11 47 -31 19 -47 36 -52 59 -7 25 -11 29 -19 18z m-190 -370
c5 -12 -6 -26 -42 -52 -27 -19 -63 -42 -79 -50 l-29 -15 -18 43 c-24 59 -19
76 29 90 22 6 58 21 80 32 l40 21 6 -26 c4 -15 10 -34 13 -43z m-222 -36 c3
-16 12 -44 21 -64 l16 -37 -80 -22 c-114 -31 -123 -28 -127 40 l-3 55 78 26
c43 14 81 27 84 27 4 1 9 -10 11 -25z"/>
<path d="M603 5732 l-493 -2 0 -570 0 -570 95 0 c95 0 96 0 108 28 6 15 11 62
11 105 0 42 2 77 4 77 2 0 12 -10 22 -22 10 -13 22 -19 27 -15 4 5 -8 22 -27
38 -19 15 -31 29 -27 29 8 0 78 -37 120 -64 32 -21 137 -46 198 -47 50 -1 52
-2 27 -12 -35 -14 -35 -20 0 -34 l27 -11 -27 -1 c-39 -1 -43 -18 -7 -26 23 -5
28 -9 18 -16 -8 -5 -24 -9 -36 -9 -12 0 -25 -4 -28 -10 -4 -7 167 -10 505 -10
l510 0 0 244 c-1 193 -4 251 -15 274 -8 16 -17 44 -20 63 l-5 34 15 -32 c8
-18 18 -33 21 -33 8 0 -2 77 -12 105 -5 12 -4 16 3 12 8 -5 11 35 12 130 0 97
-3 140 -12 145 -9 6 -9 8 1 8 18 0 15 75 -5 113 -9 18 -18 26 -20 19 -3 -6 -9
-10 -14 -6 -12 7 -12 -9 0 -21 5 -6 12 -20 16 -33 l7 -23 -39 22 c-33 19 -113
36 -113 25 0 -3 16 -14 35 -26 19 -12 32 -26 29 -31 -3 -6 -15 -4 -30 5 -13 9
-36 16 -51 16 -24 -1 -26 -2 -12 -13 9 -7 14 -17 12 -23 -2 -6 14 -16 36 -23
44 -13 48 -17 61 -62 8 -26 7 -30 -7 -25 -14 6 -14 4 -2 -10 12 -15 12 -17 -1
-12 -8 3 -15 13 -15 24 0 22 -51 81 -61 71 -8 -8 16 -87 26 -87 11 0 30 -49
30 -78 0 -26 0 -25 -18 8 -29 55 -80 147 -94 170 -14 23 -28 26 -28 8 0 -9
-28 -14 -95 -16 -79 -3 -96 -1 -101 12 -3 9 -11 13 -18 9 -6 -4 -15 -8 -20 -8
-12 0 -15 -41 -4 -57 8 -10 11 -10 15 0 2 6 19 12 37 12 27 0 32 -4 34 -25 2
-27 -7 -32 -25 -14 -9 9 -11 7 -7 -9 4 -11 13 -19 22 -17 23 3 37 -6 22 -15
-8 -5 -1 -10 19 -15 18 -4 35 -4 38 -2 3 3 17 -5 31 -18 14 -13 30 -21 36 -18
8 4 8 3 0 -6 -7 -8 -20 -6 -50 8 -33 16 -48 17 -99 10 -79 -12 -112 -26 -97
-41 19 -19 14 -30 -8 -18 -11 6 -20 18 -20 26 0 8 -4 13 -9 10 -5 -3 -11 6
-14 19 -2 14 0 28 4 31 15 9 10 21 -11 27 -11 3 -20 0 -20 -5 0 -6 -6 -5 -15
2 -22 18 -20 -13 1 -35 12 -12 14 -19 6 -27 -8 -8 -15 -3 -23 18 -9 22 -13 25
-16 12 -3 -10 0 -25 6 -35 7 -13 5 -23 -6 -35 -13 -14 -13 -20 -3 -33 7 -8 10
-29 8 -46 -3 -20 0 -33 9 -36 16 -6 18 -43 2 -43 -8 0 -8 -5 1 -15 7 -9 9 -22
5 -32 -5 -10 -9 -23 -10 -30 -2 -6 -15 -28 -29 -50 l-27 -38 2 45 c3 54 -43
194 -74 228 -25 27 -4 31 31 6 12 -8 22 -11 22 -5 0 23 -51 39 -146 48 -52 5
-70 2 -122 -22 -55 -24 -62 -31 -62 -56 0 -15 -5 -31 -10 -34 -6 -3 -7 -17 -4
-31 5 -21 3 -24 -23 -24 -17 0 -33 -8 -41 -20 -13 -21 -3 -27 15 -9 12 12 70
9 66 -3 -2 -5 6 -17 18 -29 14 -14 27 -18 42 -13 22 7 22 6 3 -15 -13 -14 -15
-21 -6 -21 7 0 19 8 26 18 11 13 15 14 22 4 5 -7 16 -10 24 -7 9 4 19 2 22 -3
3 -6 -8 -15 -26 -21 -17 -6 -29 -14 -26 -17 3 -3 33 4 67 16 74 25 122 26 150
3 20 -17 21 -21 9 -55 -7 -21 -28 -48 -47 -63 -41 -29 -23 -34 23 -6 46 29 97
91 101 123 2 16 9 36 16 44 7 8 12 30 11 49 -1 19 3 35 8 35 6 0 10 5 10 11 0
5 -4 7 -10 4 -11 -7 -13 15 -4 39 7 19 24 21 25 4 0 -7 20 -53 44 -103 42 -86
44 -88 44 -52 1 42 3 43 37 21 l25 -17 -4 34 c-2 19 -7 40 -11 47 -8 13 3 15
28 6 9 -3 13 -11 9 -17 -3 -6 -1 -7 5 -3 6 3 15 -1 20 -10 6 -10 12 -12 16 -6
9 15 -22 82 -39 82 -8 0 -15 5 -15 10 0 12 2 12 35 0 19 -7 25 -15 21 -26 -5
-12 -2 -15 10 -10 8 3 31 6 50 6 36 0 46 15 17 24 -10 3 -3 4 15 2 28 -2 32 0
32 21 0 13 -7 37 -15 53 -14 27 -14 30 0 30 8 0 17 -11 21 -25 9 -38 30 -50
39 -23 4 13 6 27 6 32 -1 5 5 4 13 -3 12 -10 14 -9 9 8 -3 12 -3 21 1 21 11 0
36 -58 40 -95 3 -20 10 -43 17 -51 10 -13 10 -17 -2 -25 -12 -8 -12 -10 1 -18
9 -7 -18 -8 -78 -4 -61 4 -92 2 -92 -5 0 -5 17 -14 38 -19 27 -7 36 -14 34
-26 -2 -9 2 -17 9 -17 7 0 9 -9 6 -21 -4 -16 -3 -18 8 -9 8 7 23 9 35 5 34
-11 12 -25 -33 -20 -44 4 -137 -20 -137 -35 0 -5 18 -15 41 -21 38 -12 40 -14
23 -26 -11 -8 -28 -13 -39 -12 -11 1 -33 -3 -50 -10 -16 -6 -37 -14 -45 -17
-11 -4 -9 -9 10 -19 l25 -13 -25 -5 c-14 -3 -61 -10 -105 -17 -124 -19 -133
-34 -25 -42 31 -3 24 -7 -55 -33 -111 -36 -123 -45 -59 -46 42 0 46 -2 24 -10
-20 -8 -22 -12 -10 -20 13 -8 13 -10 0 -19 -18 -12 -95 -3 -132 16 -16 8 -60
14 -105 15 -53 0 -72 3 -58 9 15 7 10 9 -25 10 -77 2 -143 10 -159 20 -14 8
-13 10 4 11 11 1 -1 5 -27 9 -64 11 -161 60 -173 88 -5 12 -13 22 -17 22 -14
0 -9 39 13 111 30 98 55 132 107 143 41 9 42 10 42 51 0 22 7 50 15 61 8 10
15 31 15 45 0 56 46 126 93 142 10 4 26 -1 37 -10 18 -15 18 -17 2 -29 -14
-10 -3 -12 63 -7 44 3 82 10 85 14 8 12 26 -3 34 -28 4 -13 11 -23 16 -23 14
0 21 32 10 45 -16 19 37 43 83 37 46 -5 50 14 5 27 -30 8 -30 9 -8 10 22 1 23
3 8 12 -22 12 -23 32 -3 49 8 7 15 20 15 30 0 17 -18 29 -111 69 l-44 18 40
12 c22 6 60 14 85 17 25 4 75 15 113 26 52 15 71 17 81 9 10 -8 16 -9 21 -1 4
6 91 10 252 10 136 0 244 2 241 5 -7 7 -442 10 -1025 7z"/>
<path d="M6355 5710 c-3 -5 1 -10 9 -10 8 0 -9 -23 -39 -51 -91 -86 -106 -146
-56 -224 36 -57 70 -84 128 -101 126 -38 223 6 223 100 0 65 -61 172 -152 268
-20 22 -36 28 -67 28 -22 0 -43 -4 -46 -10z m118 -52 c57 -61 107 -131 107
-150 0 -7 7 -24 16 -36 21 -31 11 -82 -23 -116 -23 -23 -34 -26 -92 -26 -92 0
-144 27 -195 102 -38 55 -39 59 -28 97 13 43 91 136 122 146 11 4 20 13 20 21
0 27 24 14 73 -38z"/>
<path d="M8087 5703 c-4 -3 -7 -14 -7 -23 0 -9 -19 -34 -41 -55 -75 -72 -86
-131 -39 -200 50 -73 87 -94 175 -104 91 -11 136 -1 165 36 26 34 26 100 -1
157 -23 49 -129 180 -154 190 -22 8 -90 8 -98 -1z m81 -130 c3 -28 8 -33 37
-39 41 -7 67 -3 72 13 3 8 -6 10 -31 6 -38 -6 -66 8 -66 33 0 22 79 18 97 -3
47 -61 77 -153 53 -168 -27 -17 -150 -31 -213 -25 -62 7 -70 11 -102 46 -19
22 -34 43 -35 48 0 15 82 90 120 109 48 23 64 18 68 -20z"/>
<path d="M2715 5684 c-6 -1 -22 -5 -37 -8 -45 -10 -33 -27 13 -20 39 7 41 6
34 -15 -4 -13 -2 -21 6 -21 7 0 -11 -22 -39 -48 -29 -27 -59 -65 -67 -85 -16
-39 -20 -107 -7 -107 5 0 16 -15 25 -34 55 -117 285 -158 351 -64 19 27 20 90
3 141 -16 44 -72 127 -87 127 -5 0 -10 5 -10 10 0 6 7 10 15 10 18 0 18 0 0
37 -9 17 -22 34 -30 37 -8 3 -15 12 -15 21 0 10 -11 15 -32 16 -18 1 -51 2
-73 3 -23 1 -45 1 -50 0z m123 -94 c23 -6 42 -15 42 -21 0 -5 11 -20 24 -33
35 -32 96 -153 96 -190 -1 -59 -51 -96 -130 -96 -105 0 -173 33 -213 102 -11
21 -24 38 -29 38 -16 0 -8 58 15 98 27 50 113 124 136 118 9 -3 35 -10 59 -16z"/>
<path d="M7556 5508 c-76 -45 -92 -93 -71 -221 11 -66 57 -107 121 -107 40 0
51 5 94 46 73 68 110 129 110 179 0 36 -5 45 -44 77 -37 32 -53 38 -107 43
-55 5 -69 3 -103 -17z m189 -58 c9 -18 23 -30 35 -30 30 0 25 -37 -9 -68 -58
-54 -134 -92 -198 -98 -60 -7 -62 -6 -68 19 -10 37 -2 61 20 65 35 7 56 33 50
62 -7 33 4 43 70 63 71 22 83 21 100 -13z"/>
<path d="M2195 5447 c-64 -37 -84 -59 -101 -113 -14 -44 -15 -60 -6 -75 6 -10
15 -37 18 -61 4 -28 17 -54 37 -75 27 -29 37 -33 83 -33 37 0 59 6 77 20 35
27 116 135 133 176 18 42 18 84 1 84 -8 0 -11 -12 -9 -38 3 -30 -3 -47 -35
-91 -21 -30 -56 -72 -78 -93 -36 -34 -45 -38 -92 -38 -45 0 -54 4 -77 31 -24
28 -31 56 -27 102 1 9 -3 17 -8 17 -15 0 -14 53 2 87 20 46 97 103 138 103 11
0 36 -7 56 -15 45 -19 56 -12 14 9 -34 18 -97 19 -126 3z"/>
<path d="M7308 5434 c-5 -4 -8 -87 -8 -185 0 -209 16 -315 61 -395 17 -29 37
-83 44 -118 13 -60 42 -132 50 -124 2 2 -5 30 -16 62 -11 32 -19 68 -17 80 3
18 7 16 27 -16 16 -27 44 -49 97 -77 41 -21 73 -34 71 -28 -2 6 -32 26 -68 44
-62 32 -72 42 -126 137 -7 11 -17 21 -23 21 -15 0 -48 59 -61 108 -6 23 -14
145 -18 270 -3 126 -9 225 -13 221z"/>
<path d="M6155 5335 c-86 -47 -113 -101 -142 -288 -21 -131 -44 -211 -89 -313
-5 -12 44 -49 53 -40 3 3 -4 14 -17 24 l-22 18 19 40 c34 66 51 133 72 276 23
157 47 212 114 256 53 35 127 35 194 0 27 -14 75 -40 107 -57 62 -33 108 -43
73 -17 -10 8 -14 17 -9 20 17 10 59 -32 87 -89 16 -30 35 -61 43 -68 18 -14
17 -11 -25 69 -41 79 -76 108 -121 99 -26 -5 -47 2 -107 35 -88 49 -179 63
-230 35z"/>
<path d="M7925 3924 c-33 -8 -103 -29 -156 -45 -84 -26 -102 -36 -141 -77 -51
-54 -172 -195 -205 -238 -21 -28 -22 -28 -22 -6 -1 41 -21 22 -21 -20 -1 -24
-7 -54 -15 -68 -17 -29 -20 -74 -5 -65 6 4 8 11 5 16 -4 5 -1 9 4 9 14 0 14 0
-6 -51 -9 -24 -19 -84 -23 -134 -7 -89 -7 -89 -8 48 -1 83 -6 137 -12 137 -6
0 -10 -65 -10 -176 0 -227 19 -353 65 -438 19 -33 39 -90 45 -126 12 -64 37
-127 47 -117 3 3 -4 31 -16 62 -33 89 -25 128 14 63 22 -39 33 -48 106 -88 60
-32 69 -35 69 -22 0 5 -28 22 -61 38 -47 22 -72 42 -103 84 -40 54 -44 64
-103 285 -9 33 -18 111 -20 173 -4 96 -1 123 16 175 12 33 21 77 21 96 0 45
18 79 71 135 23 25 51 59 63 75 57 80 135 162 172 181 22 11 58 20 80 21 21 0
48 4 59 9 18 8 18 9 -5 10 -23 1 -23 2 -5 10 11 4 62 18 112 30 94 22 172 21
216 -2 10 -5 28 -6 40 -2 18 6 12 10 -33 20 -71 17 -159 16 -235 -2z"/>
<path d="M8236 3836 c31 -27 58 -64 73 -99 14 -31 28 -54 32 -52 10 7 62 -72
57 -87 -3 -7 -13 2 -23 22 -11 21 -20 30 -23 21 -2 -7 14 -39 36 -71 44 -61
109 -236 136 -365 8 -38 17 -139 21 -223 5 -130 3 -157 -11 -184 -15 -29 -53
-132 -74 -201 -15 -49 11 -26 32 28 11 28 34 84 53 125 30 67 39 108 36 163
-1 10 -5 16 -10 13 -5 -4 -11 81 -13 197 l-5 202 -32 65 c-18 36 -45 88 -61
115 -16 28 -32 66 -36 85 -9 49 -29 85 -89 160 -56 70 -119 130 -136 130 -6 0
11 -20 37 -44z"/>
<path d="M4220 3810 c-187 -41 -240 -71 -333 -185 -19 -23 -38 -35 -54 -35
-15 0 -22 -4 -17 -11 4 -7 -8 -10 -37 -8 -28 2 -44 -1 -47 -10 -3 -10 6 -11
43 -5 l48 7 -44 -64 c-41 -60 -44 -62 -47 -36 -5 46 -22 30 -22 -21 0 -27 -6
-57 -15 -68 -16 -22 -20 -64 -5 -64 6 0 10 8 11 18 0 9 3 12 5 6 3 -6 -4 -36
-16 -65 -15 -41 -21 -81 -22 -169 -2 -100 -3 -91 -8 65 l-6 180 -2 -197 c-3
-252 9 -331 59 -421 25 -45 39 -82 39 -105 0 -35 35 -130 44 -121 3 2 -4 31
-15 63 -11 32 -19 68 -17 80 3 18 8 14 33 -24 23 -34 49 -55 103 -83 39 -21
72 -34 72 -30 0 5 -32 26 -70 47 -39 20 -75 47 -81 59 -6 12 -21 32 -32 44
-11 13 -31 62 -44 110 -13 49 -31 115 -40 148 -22 82 -19 285 6 358 22 62 21
59 21 101 0 28 12 47 62 102 53 58 67 69 91 66 50 -4 121 -54 148 -103 8 -15
5 -16 -26 -7 -39 13 -73 2 -133 -42 -52 -37 -71 -107 -48 -174 9 -26 16 -54
16 -63 0 -9 12 -30 27 -45 23 -24 35 -28 81 -28 44 0 60 5 86 26 82 68 156
215 123 242 -9 8 -12 0 -12 -33 0 -33 -9 -55 -39 -99 -21 -31 -42 -56 -47 -56
-5 0 -9 12 -10 28 0 15 -3 22 -5 15 -3 -7 -12 -9 -21 -6 -13 5 -14 3 -4 -16 7
-12 9 -26 6 -31 -4 -6 1 -7 12 -3 12 4 9 -4 -11 -25 -17 -18 -33 -32 -38 -32
-4 0 -8 17 -8 38 0 20 -5 44 -11 52 -8 11 -9 7 -6 -20 6 -43 -7 -70 -33 -70
-25 0 -25 8 -2 33 12 14 13 21 5 24 -7 2 -9 11 -6 20 4 11 2 14 -5 9 -7 -4
-12 -18 -12 -32 0 -22 -8 -28 -27 -21 -5 1 -7 5 -5 10 1 4 -6 7 -15 7 -13 0
-12 5 8 26 23 25 23 26 3 20 -14 -4 -24 -2 -27 8 -9 22 16 36 67 38 29 2 42 6
36 12 -6 6 -3 14 8 22 13 10 14 13 3 14 -8 0 -22 -7 -32 -16 -9 -8 -35 -17
-58 -19 -38 -4 -41 -3 -41 20 0 19 6 25 23 26 16 1 18 2 5 6 -22 6 -23 36 -3
53 13 11 18 10 30 -7 18 -25 95 -37 95 -15 0 11 -9 13 -34 8 -28 -5 -37 -3
-45 13 -17 31 -13 41 24 57 49 20 65 18 65 -10 0 -13 7 -29 15 -36 12 -10 13
-6 8 25 l-6 36 36 -17 c25 -12 41 -29 51 -56 9 -21 20 -38 26 -38 13 0 13 17
0 25 -8 5 -8 11 -1 19 8 9 -5 27 -44 66 -30 30 -55 57 -55 61 0 4 9 9 21 12
38 10 14 32 -52 48 -35 8 -74 21 -87 28 -23 12 -23 12 -3 39 10 15 40 48 65
74 49 49 101 68 188 68 37 0 156 -19 167 -27 10 -7 -22 -31 -35 -26 -10 4 -14
-3 -14 -25 0 -17 -9 -51 -19 -76 -31 -72 -36 -112 -16 -142 13 -20 14 -28 4
-40 -9 -11 -8 -14 7 -14 31 0 41 13 47 63 5 32 17 62 37 87 21 26 30 49 30 74
0 21 7 50 15 66 13 26 22 30 58 31 25 1 32 4 19 6 l-24 5 23 24 c12 13 26 24
30 24 4 0 30 -18 57 -39 46 -36 79 -87 97 -149 3 -12 10 -20 15 -17 11 7 60
-53 59 -73 0 -15 -2 -15 -12 2 -23 36 -46 61 -47 50 0 -6 20 -42 45 -80 25
-38 57 -104 70 -147 14 -43 29 -86 34 -95 5 -10 18 -62 30 -117 24 -115 33
-364 14 -386 -9 -12 -83 -211 -83 -225 0 -2 4 -4 9 -4 5 0 21 30 36 68 15 37
38 90 51 118 32 68 43 143 21 155 -13 8 -15 36 -16 184 0 167 -10 247 -31 260
-6 3 -10 14 -10 23 0 9 -16 39 -35 66 -19 28 -42 75 -51 105 -30 103 -59 146
-173 258 -35 35 -59 63 -52 63 27 0 8 17 -21 18 -18 1 -67 4 -108 6 -50 3
-103 -2 -160 -14z"/>
<path d="M710 3795 c-173 -38 -274 -86 -365 -173 -33 -31 -66 -66 -73 -77 -25
-39 -82 -160 -82 -173 0 -7 -12 -55 -27 -105 -21 -75 -26 -114 -27 -207 -1
-113 0 -116 36 -190 48 -98 170 -222 273 -276 141 -74 162 -83 289 -114 145
-35 173 -35 311 6 171 50 192 64 309 212 79 101 93 137 111 293 8 74 18 147
21 162 12 59 5 124 -20 181 -14 31 -28 73 -32 94 -3 20 -17 48 -29 62 -13 14
-36 46 -52 72 -27 43 -89 100 -153 139 -46 29 -168 68 -275 88 -118 23 -136
24 -215 6z m285 -36 c117 -31 153 -46 219 -89 39 -27 84 -63 101 -82 31 -35
115 -189 115 -212 0 -7 9 -35 21 -60 17 -39 20 -61 16 -129 -9 -145 -24 -273
-36 -295 -6 -11 -11 -31 -11 -43 0 -23 -46 -104 -87 -153 -45 -54 -147 -128
-233 -169 -84 -40 -87 -41 -191 -40 -65 1 -131 8 -170 18 -35 10 -83 21 -106
26 -87 17 -207 86 -307 174 -75 66 -113 122 -146 214 -20 53 -22 73 -17 144
12 155 64 335 129 446 48 81 146 191 171 191 7 0 37 12 67 26 84 40 177 54
310 48 63 -3 133 -10 155 -15z"/>
<path d="M826 3334 c18 -15 18 -15 -8 -11 -16 2 -28 0 -28 -4 0 -5 12 -9 26
-9 14 0 22 -4 19 -10 -3 -5 -28 -7 -58 -4 -104 12 -250 5 -284 -13 -49 -26
-43 -38 16 -33 20 2 23 -2 18 -22 -4 -12 -7 -26 -7 -30 0 -4 -15 -5 -32 -1
-32 6 -33 6 -15 -14 22 -26 22 -43 -2 -43 -11 0 -23 -4 -26 -10 -4 -6 6 -10
22 -10 23 0 30 -6 39 -35 9 -30 9 -35 -5 -36 -9 0 -6 -4 9 -10 14 -6 28 -16
33 -24 9 -17 70 -35 117 -34 29 0 31 2 15 9 -17 7 -15 9 13 9 25 1 35 7 42 25
5 13 13 25 17 27 25 11 63 79 63 112 0 23 5 37 13 37 8 0 7 4 -3 10 -11 7 -11
10 -2 10 7 0 10 5 7 10 -3 6 5 14 18 19 13 5 27 17 31 26 9 23 8 25 -9 25 -8
0 -15 4 -15 9 0 9 53 17 170 27 36 3 67 8 69 10 2 2 -60 4 -139 4 -132 0 -142
-1 -124 -16z m-78 -100 c28 -4 32 -8 26 -26 -4 -13 -2 -18 4 -14 12 7 -2 -62
-15 -75 -15 -15 -100 -32 -119 -24 -10 4 -24 7 -31 6 -6 -1 -14 8 -18 19 -3
11 -13 20 -21 20 -8 0 -14 4 -14 9 0 6 16 7 35 4 31 -5 35 -3 35 16 0 26 -25
38 -45 21 -9 -7 -19 -9 -23 -5 -4 4 -1 10 6 12 6 3 10 9 7 13 -8 13 34 33 56
27 10 -3 21 -1 24 3 5 8 15 8 93 -6z"/>
<path d="M1147 3304 c-2 -3 -31 -6 -63 -7 -45 -2 -59 -6 -62 -18 -2 -9 5 -19
16 -21 17 -5 20 -17 24 -76 3 -55 9 -76 25 -94 45 -50 37 -82 -22 -86 -23 -2
-37 6 -62 35 -21 24 -31 44 -27 55 3 10 0 18 -6 18 -7 0 -11 15 -9 38 3 53 0
76 -8 68 -5 -4 -9 -40 -10 -79 -4 -117 -5 -122 -41 -125 -29 -3 -37 -12 -33
-35 1 -4 -8 -3 -19 3 -20 11 -28 30 -12 30 5 0 9 7 9 15 0 31 -28 12 -52 -35
-16 -31 -19 -33 -25 -15 -6 18 -9 18 -37 -10 -26 -26 -39 -30 -94 -34 -75 -4
-179 -24 -205 -40 -16 -9 -12 -10 16 -5 19 3 46 8 59 10 58 12 146 15 131 5
-8 -6 -30 -11 -49 -11 -44 0 -33 -11 21 -21 24 -4 68 -17 98 -29 30 -12 81
-22 112 -23 32 -1 58 -5 58 -9 0 -4 -14 -16 -31 -28 -39 -29 -30 -37 16 -16
41 20 87 24 129 13 23 -6 27 -5 23 6 -4 11 9 19 51 30 31 9 89 25 127 37 39
11 75 18 82 16 6 -3 14 2 17 11 5 11 14 13 34 9 26 -7 27 -7 6 8 -12 9 -36 17
-54 18 -17 1 -34 6 -36 10 -3 4 -14 8 -26 8 -11 0 -33 9 -49 21 -24 17 -29 18
-29 5 0 -11 -9 -16 -26 -16 l-27 0 27 25 c14 13 26 29 26 34 0 6 24 10 55 10
56 -1 85 12 85 38 0 23 30 74 40 68 6 -3 8 0 6 7 -3 7 -7 39 -10 71 -6 53 -5
57 15 57 21 0 21 0 -2 19 -14 11 -50 22 -84 26 -33 4 -67 9 -77 11 -9 1 -18 0
-21 -2z m113 -67 c0 -6 3 -7 7 -4 22 23 45 -58 25 -90 -10 -16 -76 -43 -104
-43 -21 0 -84 39 -65 40 4 0 2 6 -5 14 -7 8 -16 12 -20 9 -5 -2 -8 3 -8 11 0
9 4 16 9 16 5 0 11 8 14 19 7 29 147 56 147 28z m-267 -329 c15 0 52 1 82 2
64 2 91 -5 99 -25 6 -15 -50 -35 -95 -34 -13 0 -82 1 -153 2 -93 1 -130 5
-133 15 -4 9 37 12 179 14 l183 1 -165 7 c-105 4 -172 11 -185 19 -17 10 -4
11 70 6 50 -4 102 -7 118 -7z"/>
<path d="M5980 3740 c-74 -5 -160 -15 -190 -24 -30 -9 -63 -16 -72 -16 -21 0
-113 -54 -149 -87 -19 -17 -28 -38 -32 -70 -4 -40 -12 -52 -56 -92 l-51 -46
-2 -97 c-3 -96 -3 -97 29 -130 l31 -33 7 -152 c6 -130 5 -159 -10 -203 -22
-65 -10 -112 38 -160 70 -71 183 -92 381 -73 70 7 89 6 93 -4 3 -7 14 -13 24
-13 14 0 19 7 19 25 0 27 2 28 114 44 37 6 76 16 85 24 21 18 138 72 222 103
37 13 93 40 125 59 32 19 62 35 66 35 20 0 158 152 167 184 5 21 32 57 69 93
47 46 63 71 76 113 9 29 16 62 16 72 0 37 -41 98 -105 155 -52 46 -70 70 -88
117 -23 62 -93 144 -145 169 -31 16 -434 20 -662 7z m646 -39 c49 -22 82 -62
125 -155 17 -37 38 -70 45 -73 28 -10 13 -23 -27 -23 -23 0 -38 -4 -34 -10 3
-5 19 -7 35 -4 24 5 36 0 67 -29 42 -41 59 -41 22 -1 -22 24 -22 26 -3 16 12
-6 29 -24 39 -39 10 -15 24 -32 31 -38 18 -15 24 -56 14 -100 -6 -28 -23 -53
-57 -85 -26 -25 -52 -52 -58 -61 -5 -8 -20 -31 -32 -50 -13 -19 -23 -42 -23
-51 0 -32 -140 -148 -234 -194 -49 -24 -98 -44 -108 -44 -10 0 -64 -23 -120
-51 -59 -30 -130 -57 -172 -65 -39 -8 -114 -26 -167 -39 -53 -14 -128 -28
-167 -31 -62 -6 -79 -3 -146 21 -56 20 -85 38 -111 66 -38 43 -39 48 -25 159
16 122 14 262 -5 319 -9 27 -15 56 -14 63 5 24 -12 60 -26 54 -17 -6 -22 17
-17 78 4 43 10 54 53 95 36 34 49 54 49 74 0 49 27 84 102 130 95 58 101 60
253 72 33 3 92 9 130 14 39 6 176 8 305 5 198 -4 241 -8 276 -23z"/>
<path d="M6294 3520 c-42 -6 -121 -47 -144 -75 -17 -20 -5 -43 32 -64 22 -12
31 -11 92 13 71 28 98 30 224 10 43 -6 44 -6 40 22 -2 22 -15 35 -58 60 -58
33 -117 44 -186 34z"/>
<path d="M5763 3474 c-30 -7 -49 -32 -36 -45 6 -6 46 -16 90 -21 96 -13 133
-26 133 -47 0 -36 -13 -58 -38 -69 -15 -6 -49 -27 -76 -47 -30 -21 -56 -33
-66 -30 -18 6 -87 -44 -127 -93 -42 -50 -23 -45 28 7 49 50 95 78 107 66 3 -3
-11 -19 -31 -36 -20 -17 -37 -36 -37 -43 0 -6 -18 -30 -41 -51 -41 -40 -75
-93 -66 -102 12 -12 51 24 113 103 62 79 132 144 157 144 5 0 27 -16 48 -35
41 -37 58 -42 90 -24 25 13 14 32 -13 23 -14 -4 -29 2 -49 22 -36 35 -37 59
-1 81 36 23 42 32 42 69 0 23 6 34 26 43 31 14 27 36 -7 36 -13 0 -44 11 -68
24 -44 23 -131 35 -178 25z"/>
<path d="M6165 3279 c-9 -13 -7 -14 30 -26 22 -7 30 -16 30 -33 0 -33 -19 -35
-33 -4 -11 24 -16 25 -55 19 -23 -4 -49 -11 -57 -15 -13 -7 -13 -10 3 -15 9
-4 28 -4 42 -1 20 5 27 2 37 -19 6 -14 16 -25 22 -26 6 -1 22 -2 36 -2 33 -2
36 -30 15 -128 -9 -41 -20 -97 -25 -125 -4 -27 -18 -69 -30 -92 -24 -46 -21
-84 5 -62 20 17 49 118 76 265 19 103 21 129 11 185 -7 40 -18 69 -28 77 -22
16 -70 17 -79 2z"/>
<path d="M5675 2881 c-11 -5 -28 -18 -38 -29 -27 -29 -4 -37 32 -11 24 18 42
21 107 20 65 -1 82 -5 101 -23 13 -12 45 -34 71 -48 35 -19 50 -34 58 -60 14
-41 28 -45 32 -9 4 34 -28 72 -92 108 -30 17 -59 38 -66 46 -9 11 -34 15 -99
14 -47 0 -95 -4 -106 -8z"/>
<path d="M2537 3725 c-31 -7 -96 -25 -142 -40 -75 -24 -91 -33 -133 -78 -26
-29 -68 -73 -93 -100 -26 -26 -59 -67 -75 -90 -27 -41 -28 -42 -35 -17 -7 23
-7 23 -8 -7 -1 -18 -10 -51 -22 -73 -13 -25 -18 -47 -14 -58 10 -21 7 -54 -6
-66 -5 -6 -9 8 -9 37 0 26 -4 47 -10 47 -15 0 -12 -350 4 -435 7 -41 26 -93
44 -126 18 -31 32 -63 32 -71 0 -34 41 -146 55 -152 12 -4 12 2 -4 32 -21 42
-36 112 -24 112 4 0 17 -15 29 -33 20 -31 148 -106 160 -94 3 3 -24 20 -60 38
-50 26 -74 45 -100 84 -31 45 -43 80 -92 260 -19 66 -18 265 0 309 7 18 17 57
21 87 8 60 24 83 167 244 46 51 97 100 115 109 36 18 164 21 253 5 80 -14 170
-19 170 -9 0 8 -44 15 -155 25 -27 2 -77 8 -110 13 l-60 8 55 13 c30 6 90 16
132 22 71 9 81 8 120 -12 57 -28 138 -90 138 -105 0 -6 15 -30 33 -54 66 -88
77 -105 77 -120 0 -8 -9 0 -20 18 -11 17 -22 32 -25 32 -12 0 -3 -21 31 -70
20 -29 53 -102 74 -163 22 -60 44 -115 50 -121 17 -17 12 14 -10 63 -19 42
-20 66 -1 45 26 -28 40 -119 19 -126 -9 -3 -9 -18 0 -64 6 -32 14 -115 17
-184 4 -110 3 -129 -13 -155 -24 -39 -76 -194 -68 -202 8 -9 9 -8 46 82 18 43
39 89 47 101 18 28 30 134 16 142 -6 4 -12 79 -15 178 -6 188 -9 201 -87 329
-22 38 -41 80 -41 93 0 57 -121 206 -233 290 -26 19 -43 22 -106 21 -42 -1
-102 -7 -134 -14z"/>
<path d="M4443 3614 c-7 -3 -13 -13 -13 -23 0 -9 -16 -33 -36 -52 -44 -42 -74
-98 -74 -139 0 -49 57 -125 115 -154 98 -49 220 -41 260 18 17 23 20 112 5
121 -5 3 -10 13 -10 21 0 21 -47 89 -105 151 -42 45 -57 55 -90 58 -22 3 -46
2 -52 -1z m79 -44 c-2 -23 -2 -24 11 -7 12 15 16 15 26 3 7 -8 9 -26 6 -43 -5
-24 -5 -25 5 -10 11 17 14 16 41 -13 33 -34 30 -54 -7 -47 -26 5 -33 -7 -9
-17 8 -3 12 -12 9 -21 -3 -8 -2 -15 4 -15 5 0 12 9 15 21 8 31 42 21 40 -13
-1 -18 4 -28 18 -31 13 -4 19 -14 19 -35 0 -66 -24 -83 -35 -25 -7 39 -19 53
-45 53 -13 -1 -12 -3 2 -13 9 -7 21 -33 28 -57 10 -39 10 -45 -6 -57 -10 -7
-23 -13 -30 -13 -14 0 -28 63 -19 90 4 11 2 20 -4 20 -6 0 -14 -12 -17 -27 -4
-16 -12 -31 -18 -35 -6 -4 -4 -9 7 -14 9 -3 17 -12 17 -20 0 -15 -60 -19 -94
-5 -19 7 -19 8 2 22 13 10 18 20 13 28 -6 9 -13 5 -28 -15 -19 -26 -20 -26
-46 -9 -30 20 -97 108 -97 129 0 28 31 87 65 123 29 31 36 34 50 23 12 -10 19
-10 27 -2 9 9 9 12 0 12 -7 0 -12 7 -12 15 0 8 7 15 15 15 8 0 15 5 15 11 0 6
8 9 18 7 12 -2 16 -11 14 -28z"/>
<path d="M4424 3467 c-35 -30 -50 -113 -26 -139 20 -23 94 -24 127 -2 36 23
35 90 -1 133 -31 37 -63 40 -100 8z m96 -27 c5 -10 10 -36 10 -58 0 -32 -5
-41 -25 -50 -33 -15 -78 -15 -93 0 -7 7 -12 28 -12 48 0 83 85 126 120 60z"/>
<path d="M2724 3529 c-4 -8 1 -9 17 -4 16 5 5 -9 -34 -45 -95 -86 -110 -144
-58 -213 57 -74 106 -97 213 -97 63 0 72 3 99 29 62 62 27 167 -98 300 -36 36
-45 41 -86 41 -25 0 -49 -5 -53 -11z m148 -63 c50 -54 108 -159 108 -196 0
-12 -15 -37 -34 -56 -29 -29 -41 -34 -80 -34 -43 0 -47 2 -60 35 -17 39 -47
47 -77 19 -16 -14 -20 -12 -58 36 -23 29 -41 59 -41 67 0 43 36 88 145 183 18
16 49 -2 97 -54z"/>
<path d="M2229 3352 c-80 -41 -95 -85 -74 -215 11 -66 48 -97 117 -97 47 0 53
3 94 48 67 71 95 116 101 159 5 35 2 41 -38 73 -43 34 -98 60 -130 60 -9 0
-41 -13 -70 -28z m117 -8 c29 -11 46 -25 57 -50 9 -19 22 -34 28 -34 8 0 8 4
0 14 -7 8 -8 17 -3 20 6 3 15 -1 22 -9 16 -19 6 -60 -27 -107 -21 -31 -32 -38
-59 -38 -39 0 -64 -22 -64 -56 0 -16 -6 -24 -17 -25 -74 -5 -102 17 -116 93
-20 107 -13 129 57 180 45 32 64 34 122 12z"/>
<path d="M8250 3286 c0 -2 14 -31 30 -65 27 -54 30 -66 20 -99 -18 -68 -116
-103 -181 -65 -16 10 -29 21 -29 25 0 4 -6 8 -14 8 -12 0 -12 -6 -3 -29 23
-62 -38 -131 -117 -131 -35 0 -46 6 -88 52 -26 28 -51 48 -55 44 -4 -4 18 -32
49 -62 49 -47 62 -54 96 -54 52 0 101 34 127 88 14 30 24 40 35 35 42 -18 90
-15 135 11 52 31 65 51 65 100 0 40 -43 146 -59 146 -6 0 -11 -2 -11 -4z"/>
<path d="M4375 3009 c-61 -28 -128 -56 -150 -63 -22 -7 -56 -23 -75 -34 -31
-20 -32 -22 -12 -22 l23 0 -20 -26 c-28 -36 -26 -48 4 -28 27 18 31 13 15 -17
-7 -12 -7 -19 -1 -19 6 0 17 12 25 28 12 22 15 23 16 8 0 -30 18 -6 22 29 3
28 5 30 41 27 32 -3 39 0 44 17 5 18 11 20 37 16 22 -5 39 -1 56 12 49 38 85
46 118 29 42 -21 63 -20 32 2 -37 25 -35 52 4 53 27 1 26 2 -14 11 -25 6 -47
14 -50 19 -3 4 -55 -14 -115 -42z"/>
<path d="M2746 2820 c-105 -78 -109 -80 -164 -80 -54 0 -166 14 -205 26 -21 7
-47 54 -47 89 0 14 -4 25 -10 25 -27 0 -1 -100 34 -129 13 -11 13 -16 0 -47
-9 -21 -14 -58 -12 -87 l3 -52 41 -3 c40 -3 43 -1 73 46 18 28 31 62 31 80 l0
32 79 0 78 0 101 73 c90 64 120 93 109 103 -2 2 -52 -32 -111 -76z"/>
<path d="M7665 1851 c-44 -10 -117 -31 -163 -46 -78 -26 -86 -31 -149 -101
l-66 -74 -63 0 c-35 0 -65 -4 -68 -8 -10 -16 10 -31 47 -34 l38 -3 -46 -65
c-56 -77 -76 -121 -104 -225 -19 -68 -21 -94 -16 -204 7 -142 23 -251 37 -251
5 0 7 -4 3 -10 -3 -5 10 -40 29 -77 51 -102 164 -199 242 -209 l39 -5 -55 30
c-35 18 -79 56 -120 102 -53 60 -68 85 -79 129 -7 30 -20 78 -28 105 -8 28
-19 64 -24 81 -5 17 -9 80 -9 141 0 84 5 124 20 168 11 32 20 74 20 94 0 20 8
48 18 62 36 54 111 129 129 129 32 -1 99 -37 131 -71 18 -19 32 -36 32 -39 0
-3 -25 -3 -55 -2 -71 5 -109 -18 -154 -92 -27 -46 -32 -62 -27 -90 13 -70 72
-176 98 -176 5 0 23 -9 39 -20 22 -16 33 -19 48 -11 12 7 21 7 23 1 2 -5 17 4
35 20 18 17 36 30 41 30 5 0 12 19 16 42 4 23 14 50 22 59 8 9 25 45 38 80 17
49 28 65 44 67 28 4 27 10 -8 51 l-30 35 10 -33 c7 -27 6 -32 -5 -27 -7 2 -16
0 -18 -7 -6 -17 -77 52 -77 75 0 19 15 24 25 8 3 -5 19 -10 34 -10 25 0 28 4
27 28 -1 34 -20 45 -24 15 -2 -13 -10 -23 -18 -23 -17 0 -64 44 -64 59 0 5
-28 19 -62 31 -35 11 -73 26 -85 33 -22 12 -21 13 23 67 74 90 160 114 332 94
42 -6 52 -10 52 -25 0 -13 -7 -19 -23 -19 -19 0 -23 -6 -25 -36 -2 -21 -15
-61 -29 -90 -25 -52 -25 -54 -10 -101 17 -52 15 -62 -8 -43 -21 17 -21 -8 1
-38 16 -23 58 -30 69 -12 4 6 -3 9 -16 7 -29 -3 -36 21 -7 25 19 2 24 10 28
49 3 27 19 66 38 95 17 28 32 58 32 67 0 8 9 36 20 61 18 43 21 45 52 40 30
-5 31 -4 16 9 -17 13 -16 15 6 36 l23 21 29 -21 c52 -40 93 -82 88 -91 -3 -4
4 -20 15 -34 12 -15 21 -33 21 -40 0 -8 6 -14 13 -14 14 0 57 -60 57 -81 0 -8
-9 1 -20 19 -11 17 -22 32 -25 32 -12 0 -3 -20 35 -76 42 -63 111 -249 134
-362 17 -80 30 -378 17 -386 -14 -9 -83 -205 -78 -224 3 -12 9 -5 21 23 102
234 106 251 86 338 -5 23 -11 114 -12 202 -3 143 -5 164 -26 203 -12 23 -22
47 -22 51 0 5 -15 31 -33 58 -19 28 -39 72 -46 99 -7 27 -18 60 -24 74 -17 36
-82 115 -151 183 -43 42 -56 61 -46 67 8 5 -4 10 -31 14 -107 15 -167 14 -244
-3z m-215 -412 c38 -16 55 -31 74 -65 l25 -45 -37 -71 c-45 -88 -96 -129 -156
-125 -46 2 -73 32 -82 88 -6 33 -3 37 25 48 41 18 54 36 47 65 -4 17 -15 26
-36 31 -16 4 -30 10 -30 14 0 17 87 79 113 81 5 0 30 -10 57 -21z"/>
<path d="M2526 1794 c-44 -8 -93 -23 -110 -33 -17 -10 -54 -24 -83 -31 -53
-12 -54 -13 -153 -127 -14 -16 -34 -36 -45 -44 -29 -20 -85 -94 -85 -112 0
-21 -40 -30 -41 -9 0 10 -5 1 -10 -18 -26 -94 -43 -146 -52 -155 -6 -6 -7 -2
-2 13 4 13 2 22 -4 22 -14 0 -15 -315 -1 -430 8 -65 20 -104 50 -167 22 -44
40 -93 40 -107 0 -25 34 -133 45 -144 15 -16 13 11 -5 52 -11 26 -20 64 -20
83 l0 36 18 -24 c10 -13 21 -32 25 -41 5 -14 133 -88 152 -88 19 0 -16 25 -71
51 -46 22 -68 39 -75 58 -6 14 -21 37 -33 51 -13 14 -28 51 -36 85 -7 33 -24
101 -39 150 -25 87 -26 96 -20 260 9 232 36 310 99 290 21 -7 28 9 9 20 -6 4
2 19 20 38 16 18 58 70 93 117 90 121 115 133 276 127 67 -2 125 -7 128 -10 4
-3 -1 -24 -10 -47 -23 -58 -21 -82 4 -50 l20 25 0 -27 c0 -32 16 -37 25 -9 3
10 14 26 24 35 18 16 21 16 60 -3 22 -12 47 -21 55 -21 8 0 26 -20 40 -44 42
-72 73 -103 101 -103 25 0 25 1 10 21 -54 73 -96 144 -105 175 -15 58 -31 72
-99 87 -62 15 -64 14 -87 -6 -22 -21 -25 -22 -114 -9 -51 6 -86 15 -78 19 31
17 162 40 225 40 67 -1 69 -2 143 -58 41 -31 76 -66 79 -77 2 -11 12 -31 22
-44 11 -13 19 -35 20 -50 0 -20 2 -22 7 -9 6 15 11 13 33 -15 28 -35 46 -77
32 -77 -4 0 -16 14 -26 31 -10 18 -20 29 -24 26 -3 -4 9 -29 28 -56 l34 -49
22 25 c19 20 26 22 44 12 17 -9 20 -8 17 3 -5 12 -27 15 -57 7 -9 -3 -17 7
-21 27 -8 36 -77 141 -133 201 -22 24 -67 61 -99 83 -55 36 -66 40 -122 39
-33 0 -97 -7 -140 -15z"/>
<path d="M4060 1771 c-149 -30 -214 -56 -245 -101 -15 -21 -37 -45 -49 -53
-11 -8 -41 -43 -64 -77 -35 -49 -39 -59 -20 -46 14 9 31 28 39 44 8 15 43 57
79 94 60 62 73 70 155 98 56 19 120 33 171 37 l82 6 55 -39 c49 -34 87 -78 87
-99 0 -9 -118 -1 -142 10 -13 5 -18 3 -18 -9 0 -20 -48 -22 -56 -2 -5 14 -54
19 -54 6 0 -8 30 -21 93 -40 l37 -12 -44 -49 c-70 -78 -64 -143 18 -198 60
-39 92 -51 140 -51 59 0 107 42 105 92 -2 29 -3 29 -6 6 -2 -14 -16 -38 -30
-52 -48 -49 -159 -27 -230 44 -51 50 -44 91 30 168 34 34 48 42 77 42 32 -1
39 -7 84 -70 28 -38 52 -68 54 -66 6 7 -15 40 -54 87 l-37 44 33 3 c19 2 39
-3 50 -13 19 -18 33 -55 20 -55 -4 0 -10 10 -13 22 -4 12 -9 19 -13 15 -4 -4
7 -26 24 -50 33 -47 60 -115 100 -252 23 -80 26 -109 26 -250 1 -133 -2 -165
-16 -190 -10 -16 -20 -38 -24 -47 -11 -31 -21 -20 -28 31 -11 86 -77 112 -164
67 -19 -10 -32 -11 -48 -4 -13 6 -34 8 -48 4 -20 -5 -26 -13 -26 -34 0 -77
-43 -142 -94 -142 -30 0 -31 1 -33 50 -3 70 -17 92 -55 88 -55 -5 -73 -43 -74
-159 l-1 -99 -39 -30 c-21 -16 -48 -30 -59 -30 -25 0 -50 -16 -39 -23 14 -8
81 18 124 48 l38 26 -5 97 c-5 90 -4 99 17 125 27 34 61 33 71 -3 4 -14 7 -46
8 -72 1 -53 1 -53 67 -36 55 15 68 33 84 110 14 70 32 88 60 63 29 -26 27 -86
-5 -123 -31 -37 -34 -63 -4 -36 30 27 49 68 49 107 0 22 8 41 21 53 20 18 21
18 35 -1 21 -28 17 -53 -17 -113 -30 -54 -33 -83 -4 -46 33 41 48 81 50 126 2
59 8 65 39 44 57 -37 54 -173 -5 -218 -16 -13 -51 -43 -77 -68 -29 -28 -78
-59 -125 -80 -69 -30 -95 -50 -66 -50 27 0 159 76 205 118 28 26 63 55 78 65
14 10 29 30 32 45 4 15 19 41 35 57 15 17 33 44 39 60 22 58 28 188 16 370
l-11 180 -42 66 c-37 58 -70 139 -57 139 3 0 -4 13 -16 29 -12 18 -16 32 -10
36 5 3 10 17 10 30 0 22 -3 24 -29 19 -25 -5 -35 0 -67 35 -44 50 -106 87
-154 93 -19 3 -73 -2 -120 -11z"/>
<path d="M750 1760 c-52 -10 -126 -29 -164 -42 -66 -22 -73 -28 -165 -131
-112 -126 -180 -222 -181 -255 0 -13 4 -20 10 -17 13 8 13 5 -5 -45 -18 -50
-20 -222 -4 -284 31 -118 43 -158 52 -163 6 -4 8 2 5 13 -3 10 -18 60 -32 109
-24 80 -27 101 -22 196 3 60 12 121 21 142 8 20 15 52 15 70 0 33 28 82 57
100 7 4 22 25 32 45 33 64 162 182 222 204 78 29 216 58 276 58 45 0 60 -6
118 -46 37 -25 69 -43 71 -41 10 9 -108 90 -143 98 -48 11 -50 11 -163 -11z"/>
<path d="M6045 1741 c-44 -10 -113 -28 -152 -40 -67 -21 -78 -28 -134 -93 -45
-50 -68 -68 -81 -65 -10 3 -18 1 -18 -4 0 -5 -16 -9 -35 -9 -19 0 -35 -5 -35
-11 0 -6 12 -10 28 -9 15 1 31 2 35 1 4 -1 -7 -22 -25 -48 -31 -46 -32 -47
-39 -23 -6 23 -7 22 -8 -8 -1 -18 -10 -50 -21 -72 -24 -47 -25 -64 -5 -56 13
4 13 2 5 -14 -5 -10 -14 -36 -19 -57 -9 -36 -9 -35 -10 25 -1 34 -5 62 -11 62
-16 0 -12 -302 4 -395 8 -45 26 -101 41 -128 15 -26 33 -74 41 -108 13 -57 43
-127 44 -103 0 6 -7 31 -15 54 -8 23 -15 52 -15 64 1 18 5 16 31 -16 30 -37
149 -107 149 -88 0 5 -25 22 -56 37 -30 15 -65 41 -77 57 -11 17 -24 33 -28
36 -4 3 -13 18 -18 33 -6 16 -15 26 -21 22 -14 -9 -43 52 -57 120 -6 33 -11
96 -11 140 l1 80 8 -90 c7 -85 47 -243 56 -219 2 6 -8 51 -22 99 -30 103 -35
271 -11 340 8 22 17 61 21 86 5 39 15 56 75 119 39 40 70 78 70 84 0 21 105
116 140 126 56 16 198 10 348 -15 19 -4 32 -2 32 5 0 5 -7 10 -16 10 -18 0
-10 16 15 30 25 13 94 -41 127 -100 13 -24 38 -58 54 -77 17 -18 30 -41 30
-51 -1 -11 -6 -7 -17 13 -9 17 -18 25 -20 18 -2 -6 11 -34 31 -62 19 -28 44
-81 57 -118 12 -38 31 -88 42 -113 22 -50 25 -73 31 -215 6 -127 7 -133 16
-60 10 83 1 260 -16 315 -8 25 -32 74 -54 110 -22 36 -43 81 -46 100 -4 19
-11 44 -17 55 -19 36 -106 139 -142 168 -19 15 -35 34 -35 40 0 13 -96 38
-141 36 -13 -1 -60 -9 -104 -18z"/>
<path d="M2355 1703 c-49 -10 -69 -30 -100 -98 -33 -72 -55 -98 -92 -112 -19
-7 -20 -10 -8 -26 13 -18 19 -13 94 65 45 45 81 88 81 94 0 7 8 22 18 34 31
38 59 19 100 -68 41 -89 55 -76 23 21 -18 54 -27 66 -57 80 -19 9 -36 16 -37
16 -1 -1 -11 -3 -22 -6z"/>
<path d="M1070 1645 c0 -12 5 -26 12 -33 9 -9 2 -12 -34 -12 -25 0 -61 -2 -79
-6 l-34 -5 35 21 c28 17 30 20 10 15 -14 -3 -47 -8 -73 -12 -61 -8 -71 -23
-15 -23 31 0 39 -3 28 -10 -12 -8 -10 -10 9 -10 22 0 20 -3 -17 -30 -92 -66
-116 -147 -64 -218 41 -58 93 -84 184 -90 75 -4 78 -4 108 26 55 55 37 129
-61 250 l-59 72 39 0 c30 0 45 -7 70 -32 17 -17 32 -37 33 -42 0 -6 2 -22 4
-36 1 -14 12 -43 23 -65 12 -21 21 -46 21 -53 0 -8 6 -12 14 -9 9 4 22 -14 40
-51 26 -57 26 -58 23 -267 -3 -192 -5 -219 -31 -320 -16 -60 -37 -127 -48
-148 -10 -21 -17 -44 -15 -50 2 -7 -2 -25 -10 -40 -8 -16 -12 -31 -9 -34 16
-16 114 297 127 402 5 44 9 150 9 235 -1 139 -3 160 -24 208 -12 29 -29 61
-37 71 -26 32 -55 99 -95 223 -4 11 1 18 18 21 16 3 11 5 -14 6 -28 1 -42 8
-62 34 -22 27 -26 29 -26 12z m-22 -122 c85 -92 126 -180 104 -228 -18 -39
-67 -58 -130 -51 -68 8 -122 37 -163 89 -38 47 -36 86 7 142 30 40 101 94 123
95 8 0 34 -21 59 -47z"/>
<path d="M7860 1640 c0 -6 -17 -29 -39 -53 -54 -59 -75 -104 -75 -165 -1 -37
-5 -51 -13 -47 -7 2 -13 -2 -13 -10 0 -19 31 -49 39 -37 3 6 23 -5 43 -24 21
-19 36 -34 34 -34 -2 0 -20 7 -40 15 -42 18 -149 16 -167 -2 -9 -9 -6 -10 10
-6 11 3 21 3 21 0 0 -7 -73 -51 -82 -49 -4 1 -21 -35 -39 -81 -22 -58 -34
-109 -39 -172 -8 -94 -33 -177 -75 -253 -14 -24 -25 -46 -25 -49 0 -11 91 -42
140 -48 30 -3 67 -8 81 -11 15 -3 33 1 40 8 8 7 39 24 69 38 30 14 94 53 143
88 48 34 91 62 94 62 7 0 -97 -98 -117 -110 -13 -8 -13 -9 1 -10 9 0 22 7 29
15 7 8 19 15 26 15 8 0 14 6 14 13 0 7 20 29 44 50 36 29 53 37 86 37 44 0 88
18 110 45 8 9 17 44 21 77 6 49 3 69 -12 106 -21 49 -19 62 8 41 14 -12 15
-12 7 2 -11 20 -72 72 -101 88 -33 17 -28 29 17 42 47 14 51 24 11 32 l-30 6
30 32 c21 22 29 41 29 67 0 54 -55 156 -123 229 -57 61 -61 63 -108 63 -27 0
-49 -5 -49 -10z m113 -26 c4 -4 -5 -20 -18 -36 -31 -37 -32 -72 -3 -92 29 -21
87 -21 94 -1 10 25 21 17 43 -30 32 -68 28 -110 -14 -152 -35 -35 -36 -35
-110 -31 -84 4 -109 17 -162 87 -37 48 -41 81 -17 139 21 53 105 122 149 122
17 0 35 -3 38 -6z m-14 -628 c32 -33 32 -35 13 -45 -11 -6 -25 -24 -31 -41 -9
-28 -13 -30 -31 -20 -12 6 -35 8 -52 5 -24 -6 -35 -17 -53 -57 -13 -27 -26
-45 -30 -39 -3 6 -23 11 -44 11 -33 0 -45 -7 -79 -44 -26 -29 -44 -41 -48 -34
-4 7 7 24 27 40 20 17 50 61 74 111 l40 82 43 -3 c38 -2 47 2 76 33 18 19 40
35 48 35 8 0 29 -15 47 -34z m-235 -231 c3 8 12 15 20 15 17 0 58 -49 51 -60
-3 -4 -40 -22 -84 -40 -66 -26 -87 -30 -128 -25 -67 9 -86 16 -76 26 15 15 78
17 98 3 10 -8 22 -14 25 -14 4 0 19 26 35 57 24 50 29 55 40 40 11 -15 13 -16
19 -2z"/>
<path d="M6220 1552 c0 -10 -18 -35 -40 -57 -22 -21 -47 -58 -56 -82 -16 -41
-16 -43 10 -87 30 -52 70 -86 100 -86 17 0 15 3 -10 16 -37 18 -94 93 -94 124
0 31 24 71 67 110 42 39 76 60 95 60 12 0 108 -102 108 -113 0 -9 -52 -18 -71
-12 -12 4 -19 15 -19 31 0 13 -4 24 -10 24 -5 0 -10 -13 -10 -30 0 -25 5 -31
33 -38 23 -6 40 -5 60 5 27 14 28 13 47 -29 35 -77 25 -122 -35 -153 -24 -12
-26 -15 -10 -15 30 0 60 25 75 60 20 48 -3 110 -73 197 -66 83 -81 93 -131 93
-28 0 -36 -4 -36 -18z"/>
<path d="M3785 1507 c-13 -41 -27 -64 -56 -87 -35 -28 -56 -62 -28 -44 12 7
12 6 -10 -39 -8 -15 -11 -30 -8 -33 7 -8 37 20 37 35 0 5 5 13 11 17 22 13
-12 -106 -39 -138 -8 -9 -12 -23 -10 -30 3 -8 13 0 25 20 17 27 23 31 29 19
14 -23 49 -37 92 -37 34 0 45 6 86 50 50 53 76 103 76 144 0 32 -77 78 -142
84 -52 5 -54 8 -36 47 8 18 8 29 1 36 -7 7 -16 -6 -28 -44z m133 -77 c63 -29
63 -30 57 -62 -10 -46 -38 -90 -86 -133 -36 -32 -46 -36 -76 -32 -75 12 -87
50 -54 167 13 48 24 68 42 77 35 18 47 16 117 -17z"/>
<path d="M520 1468 c-25 -22 -65 -54 -89 -71 -36 -24 -43 -27 -36 -11 4 10 10
30 13 42 5 24 4 24 -27 8 -35 -19 -41 -31 -11 -23 25 6 25 -4 0 -35 -12 -16
-16 -28 -9 -35 6 -6 1 -14 -16 -23 -14 -7 -25 -17 -25 -22 0 -5 9 -4 19 2 25
13 34 13 26 -1 -4 -5 -1 -40 6 -77 16 -86 42 -112 114 -112 47 0 54 4 92 43
65 66 93 115 93 159 0 36 -4 41 -62 78 -33 22 -70 40 -82 40 -17 0 -14 6 19
40 51 52 33 51 -25 -2z m80 -92 c69 -41 75 -66 30 -136 -66 -102 -129 -138
-193 -109 -34 16 -45 39 -52 115 -7 76 -8 73 53 127 53 47 88 48 162 3z"/>
<path d="M2678 1471 c-32 -20 -53 -44 -72 -82 -35 -70 -35 -87 1 -64 59 39
226 26 301 -23 l25 -16 -7 29 c-4 17 -17 55 -29 85 -40 100 -128 129 -219 71z
m102 -11 c0 -24 31 -42 50 -30 8 5 18 6 22 4 11 -7 50 -85 45 -90 -2 -3 -28 1
-57 7 -29 6 -93 9 -142 7 -59 -3 -88 -1 -88 7 0 23 54 87 83 100 49 21 87 19
87 -5z"/>
<path d="M2233 1455 c-53 -23 -134 -159 -108 -183 4 -4 10 -1 12 6 3 7 22 21
44 32 45 24 125 26 184 5 21 -8 41 -13 42 -11 8 7 -40 123 -59 143 -25 26 -66
29 -115 8z m81 -30 c9 -14 22 -25 30 -25 10 0 36 -39 36 -55 0 -2 -33 -1 -72
2 -64 4 -79 2 -120 -20 -27 -13 -48 -20 -48 -15 0 25 45 90 77 113 48 32 76
32 97 0z"/>
<path d="M3617 1417 c-10 -20 -15 -42 -12 -47 3 -5 2 -33 -2 -62 -7 -52 -7
-52 -14 -18 -3 19 -6 -28 -6 -105 0 -101 2 -121 6 -70 l6 70 7 -76 c4 -41 14
-92 23 -112 8 -20 15 -44 15 -54 0 -31 -22 2 -36 54 -11 43 -13 45 -13 16 -1
-19 14 -60 34 -99 19 -36 35 -77 35 -90 0 -32 26 -94 40 -94 6 0 5 9 -4 23 -8
12 -17 40 -21 62 l-6 40 20 -24 c12 -13 21 -17 21 -10 0 7 -9 22 -20 34 -11
12 -32 71 -50 140 -39 146 -44 273 -16 346 9 25 16 61 14 80 l-3 34 -18 -38z"/>
<path d="M3105 1410 c5 -14 12 -65 16 -115 5 -49 11 -110 13 -135 5 -43 5 -44
-5 -11 -17 56 -19 30 -4 -54 8 -44 18 -148 21 -230 7 -144 6 -152 -16 -195
-29 -56 -81 -220 -70 -220 9 0 55 107 102 234 28 77 31 126 7 126 -7 0 -10 34
-8 98 6 240 -20 486 -55 519 -5 4 -5 -3 -1 -17z"/>
<path d="M5743 1384 c-28 -14 -54 -33 -58 -42 -15 -35 -23 -82 -14 -82 5 0 9
11 9 24 0 34 42 81 90 100 53 21 105 5 138 -44 13 -19 29 -37 35 -39 8 -3 7 1
-2 12 -8 11 -9 17 -2 17 6 0 13 -11 17 -25 8 -30 -27 -92 -86 -152 -35 -37
-46 -43 -83 -43 -45 1 -67 13 -85 47 -21 39 -14 67 21 83 23 11 32 22 32 40 0
21 -5 25 -30 27 -27 2 -28 1 -6 -5 49 -15 29 -53 -28 -54 -26 -1 -29 -4 -21
-19 6 -10 10 -32 10 -49 0 -50 38 -80 102 -80 65 0 82 11 142 91 70 93 64 146
-24 193 -51 27 -103 28 -157 0z"/>
<path d="M3072 1307 c-1 -74 -28 -132 -93 -192 -100 -94 -267 -142 -525 -152
-121 -5 -166 -2 -226 11 -80 18 -159 61 -178 96 -18 34 -22 17 -4 -18 8 -18
21 -32 29 -32 7 0 18 -6 24 -13 8 -11 5 -17 -17 -27 -21 -10 -23 -14 -10 -17
9 -2 26 1 37 6 26 14 48 5 55 -23 3 -13 17 -31 31 -40 24 -16 27 -16 59 9 28
21 44 25 99 25 47 0 67 -4 67 -12 -1 -35 -34 -50 -74 -33 -13 6 -17 5 -13 -3
4 -6 -2 -28 -13 -49 -12 -21 -15 -29 -8 -19 30 44 49 58 63 46 10 -8 19 -8 33
1 16 10 24 10 35 1 12 -11 13 -18 1 -50 -7 -20 -13 -48 -13 -62 1 -18 3 -15
10 13 5 21 16 51 24 67 17 33 53 49 66 29 6 -10 9 -8 9 9 0 13 11 34 25 47 31
32 100 35 137 5 38 -29 103 -11 129 36 15 30 32 30 59 2 11 -12 20 -16 20 -10
0 7 -10 22 -22 34 -20 20 -20 22 -3 35 22 16 69 17 96 3 26 -14 24 2 -2 18
-20 13 -20 13 11 48 75 86 109 172 92 235 -8 32 -9 30 -10 -24z"/>
<path d="M4023 1301 c-48 -35 -50 -43 -26 -91 15 -31 15 -37 0 -79 -16 -46
-16 -46 4 -22 10 13 19 32 19 42 0 13 7 19 24 19 13 0 42 17 66 38 l43 38 -27
27 c-32 32 -27 48 12 38 18 -6 26 -14 25 -27 -1 -19 -1 -19 13 0 14 19 14 19
37 -2 13 -12 30 -22 39 -22 9 0 31 -7 49 -15 l34 -14 -28 -1 c-16 0 -37 5 -47
10 -16 8 -18 7 -14 -4 9 -24 40 -28 80 -11 34 14 39 14 57 -2 17 -16 57 -84
57 -98 0 -15 -92 -44 -168 -55 -126 -17 -213 -54 -313 -131 -30 -23 -60 -47
-68 -53 -11 -8 -10 -3 2 21 10 18 24 60 32 95 8 34 22 68 32 75 16 12 16 13 0
13 -15 0 -16 7 -11 43 4 23 11 53 16 66 8 23 4 40 -7 29 -3 -3 -10 -34 -16
-69 -21 -128 -37 -195 -58 -248 -11 -30 -19 -56 -17 -58 2 -2 30 19 62 47 93
80 217 136 352 159 69 12 126 28 147 41 19 12 35 24 35 26 0 3 -11 22 -25 42
-14 20 -25 42 -25 48 0 19 -47 44 -81 44 -17 0 -59 14 -94 31 -35 17 -85 32
-116 36 -49 4 -58 2 -96 -26z"/>
<path d="M6324 1065 c-5 -39 -17 -56 -73 -115 -62 -64 -71 -70 -153 -95 -63
-20 -100 -26 -135 -22 -83 8 -172 33 -196 54 -29 27 -77 39 -77 19 0 -8 10
-18 22 -22 13 -4 57 -42 98 -84 88 -91 139 -120 209 -120 74 0 205 45 292 101
42 27 81 49 87 49 24 0 42 45 42 107 0 58 -3 65 -42 114 -24 29 -48 54 -55 56
-7 3 -14 -13 -19 -42z m-471 -236 c12 -7 34 -22 50 -35 19 -16 36 -22 60 -19
17 3 50 6 72 8 22 2 75 14 118 26 76 22 137 24 67 3 -62 -19 -152 -60 -160
-72 -9 -14 -89 -25 -123 -16 -26 6 -127 92 -127 107 0 12 17 11 43 -2z"/>
<path d="M1060 1060 c-40 -18 -84 -30 -115 -31 -30 -1 -39 -4 -22 -6 47 -7 25
-33 -29 -33 -26 0 -30 10 -12 28 9 9 9 12 0 12 -7 0 -17 -11 -22 -25 -6 -15
-17 -25 -30 -25 -27 0 -25 28 3 33 12 2 -8 5 -45 6 -58 1 -70 -2 -97 -24 -26
-23 -70 -119 -59 -130 2 -2 26 3 53 11 28 9 107 19 177 23 135 8 162 18 194
66 9 14 17 39 18 56 1 25 8 34 34 44 17 8 32 17 32 20 0 9 -14 5 -80 -25z
m-45 -45 c-34 -15 -19 -20 19 -5 36 13 35 -10 -1 -50 -33 -36 -79 -49 -178
-50 -38 -1 -91 -5 -118 -9 -46 -8 -47 -7 -30 11 33 37 79 56 148 63 70 8 87
13 135 40 14 8 32 15 40 14 8 0 2 -6 -15 -14z"/>
<path d="M4952 936 c-9 -6 -42 -10 -72 -10 l-55 -1 -6 -51 c-8 -64 -22 -90
-59 -109 -50 -26 -57 -21 -64 48 -7 68 -24 90 -66 85 -44 -5 -64 -58 -65 -171
l0 -98 -41 -23 c-22 -13 -53 -26 -67 -30 -15 -3 -27 -11 -27 -17 0 -17 48 -2
108 34 l52 31 -6 91 c-7 100 7 147 47 160 31 10 43 -9 49 -78 l5 -62 40 4 c22
1 48 7 57 12 26 14 46 58 54 117 6 45 10 52 29 52 54 0 65 -75 20 -135 -33
-42 -25 -61 10 -22 14 17 26 48 30 78 4 27 15 59 25 71 15 19 20 20 34 9 25
-21 19 -68 -15 -128 -35 -62 -33 -81 4 -31 30 40 47 90 47 134 0 26 4 34 18
34 37 0 57 -37 57 -104 -1 -71 -23 -121 -63 -139 -15 -7 -40 -27 -56 -46 -39
-43 -91 -76 -155 -97 -53 -17 -73 -42 -24 -29 53 13 135 60 181 103 26 24 59
50 74 58 15 8 35 29 44 46 22 43 22 144 -1 192 -18 37 -18 37 -72 34 -30 -2
-62 -7 -71 -12z"/>
</g>
</svg>
